<mxfile host="app.diagrams.net" modified="2020-11-27T15:49:06.934Z" agent="5.0 (Windows NT 10.0; Win64; x64) AppleWebKit/537.36 (KHTML, like Gecko) Chrome/86.0.4240.193 Safari/537.36" etag="V4Rj7sTI6RcKZJypHqkh" version="13.10.3" type="github" pages="3">
  <diagram id="mR4lNSbXPa1-wEHYoTpo" name="Use Case Diagram">
    <mxGraphModel dx="1038" dy="548" grid="1" gridSize="10" guides="1" tooltips="1" connect="1" arrows="1" fold="1" page="1" pageScale="1" pageWidth="850" pageHeight="1100" math="0" shadow="0">
      <root>
        <mxCell id="e0sn9arD9QVaBJSPJb-r-0" />
        <mxCell id="e0sn9arD9QVaBJSPJb-r-1" parent="e0sn9arD9QVaBJSPJb-r-0" />
        <mxCell id="WE5V-1Xdm0aEqyxw6BzE-3" value="" style="rounded=0;whiteSpace=wrap;html=1;fillColor=#d5e8d4;strokeColor=#82b366;" parent="e0sn9arD9QVaBJSPJb-r-1" vertex="1">
          <mxGeometry x="130" y="30" width="560" height="1010" as="geometry" />
        </mxCell>
        <mxCell id="WE5V-1Xdm0aEqyxw6BzE-4" value="&lt;font style=&quot;font-size: 20px&quot;&gt;Shop App&lt;/font&gt;" style="text;html=1;strokeColor=none;fillColor=none;align=center;verticalAlign=middle;whiteSpace=wrap;rounded=0;" parent="e0sn9arD9QVaBJSPJb-r-1" vertex="1">
          <mxGeometry x="352.5" y="40" width="115" height="20" as="geometry" />
        </mxCell>
        <mxCell id="VzhIrebD9ufiaJ7NJEK6-48" style="edgeStyle=none;rounded=1;orthogonalLoop=1;jettySize=auto;html=1;exitX=1;exitY=0.3333333333333333;exitDx=0;exitDy=0;exitPerimeter=0;entryX=0;entryY=0.5;entryDx=0;entryDy=0;startArrow=none;startFill=0;endArrow=none;endFill=0;strokeColor=#000000;" parent="e0sn9arD9QVaBJSPJb-r-1" source="VzhIrebD9ufiaJ7NJEK6-1" target="VzhIrebD9ufiaJ7NJEK6-26" edge="1">
          <mxGeometry relative="1" as="geometry">
            <Array as="points">
              <mxPoint x="90" y="760" />
              <mxPoint x="90" y="845" />
            </Array>
          </mxGeometry>
        </mxCell>
        <mxCell id="VzhIrebD9ufiaJ7NJEK6-52" style="edgeStyle=none;rounded=1;orthogonalLoop=1;jettySize=auto;html=1;exitX=1;exitY=0.3333333333333333;exitDx=0;exitDy=0;exitPerimeter=0;entryX=0;entryY=0.5;entryDx=0;entryDy=0;startArrow=none;startFill=0;endArrow=none;endFill=0;strokeColor=#000000;" parent="e0sn9arD9QVaBJSPJb-r-1" source="VzhIrebD9ufiaJ7NJEK6-1" target="VzhIrebD9ufiaJ7NJEK6-42" edge="1">
          <mxGeometry relative="1" as="geometry">
            <Array as="points">
              <mxPoint x="90" y="760" />
              <mxPoint x="90" y="715" />
            </Array>
          </mxGeometry>
        </mxCell>
        <mxCell id="VzhIrebD9ufiaJ7NJEK6-85" style="edgeStyle=none;rounded=1;orthogonalLoop=1;jettySize=auto;html=1;exitX=1;exitY=0.3333333333333333;exitDx=0;exitDy=0;exitPerimeter=0;entryX=0;entryY=0.5;entryDx=0;entryDy=0;startArrow=none;startFill=0;endArrow=none;endFill=0;strokeColor=#000000;" parent="e0sn9arD9QVaBJSPJb-r-1" source="VzhIrebD9ufiaJ7NJEK6-1" target="VzhIrebD9ufiaJ7NJEK6-84" edge="1">
          <mxGeometry relative="1" as="geometry">
            <Array as="points">
              <mxPoint x="90" y="760" />
              <mxPoint x="90" y="935" />
            </Array>
          </mxGeometry>
        </mxCell>
        <mxCell id="VzhIrebD9ufiaJ7NJEK6-1" value="Manager" style="shape=umlActor;verticalLabelPosition=bottom;verticalAlign=top;html=1;outlineConnect=0;" parent="e0sn9arD9QVaBJSPJb-r-1" vertex="1">
          <mxGeometry x="40" y="740" width="30" height="60" as="geometry" />
        </mxCell>
        <mxCell id="VzhIrebD9ufiaJ7NJEK6-64" style="edgeStyle=none;rounded=1;orthogonalLoop=1;jettySize=auto;html=1;exitX=1;exitY=0.3333333333333333;exitDx=0;exitDy=0;exitPerimeter=0;entryX=0;entryY=0.5;entryDx=0;entryDy=0;startArrow=none;startFill=0;endArrow=none;endFill=0;strokeColor=#000000;" parent="e0sn9arD9QVaBJSPJb-r-1" source="VzhIrebD9ufiaJ7NJEK6-6" target="VzhIrebD9ufiaJ7NJEK6-63" edge="1">
          <mxGeometry relative="1" as="geometry">
            <Array as="points">
              <mxPoint x="90" y="340" />
              <mxPoint x="90" y="225" />
            </Array>
          </mxGeometry>
        </mxCell>
        <mxCell id="VzhIrebD9ufiaJ7NJEK6-6" value="Customer" style="shape=umlActor;verticalLabelPosition=bottom;verticalAlign=top;html=1;outlineConnect=0;rotation=0;" parent="e0sn9arD9QVaBJSPJb-r-1" vertex="1">
          <mxGeometry x="40" y="320" width="30" height="60" as="geometry" />
        </mxCell>
        <mxCell id="VzhIrebD9ufiaJ7NJEK6-33" style="rounded=1;orthogonalLoop=1;jettySize=auto;html=1;exitX=0;exitY=0.3333333333333333;exitDx=0;exitDy=0;exitPerimeter=0;entryX=1;entryY=0.5;entryDx=0;entryDy=0;endArrow=none;endFill=0;strokeColor=#000000;" parent="e0sn9arD9QVaBJSPJb-r-1" source="VzhIrebD9ufiaJ7NJEK6-7" target="VzhIrebD9ufiaJ7NJEK6-28" edge="1">
          <mxGeometry relative="1" as="geometry">
            <Array as="points">
              <mxPoint x="730" y="380" />
              <mxPoint x="730" y="340" />
            </Array>
          </mxGeometry>
        </mxCell>
        <mxCell id="VzhIrebD9ufiaJ7NJEK6-59" style="edgeStyle=none;rounded=1;orthogonalLoop=1;jettySize=auto;html=1;exitX=0;exitY=0.3333333333333333;exitDx=0;exitDy=0;exitPerimeter=0;entryX=1;entryY=0.5;entryDx=0;entryDy=0;startArrow=none;startFill=0;endArrow=none;endFill=0;strokeColor=#000000;" parent="e0sn9arD9QVaBJSPJb-r-1" source="VzhIrebD9ufiaJ7NJEK6-7" target="VzhIrebD9ufiaJ7NJEK6-21" edge="1">
          <mxGeometry relative="1" as="geometry">
            <Array as="points">
              <mxPoint x="730" y="380" />
              <mxPoint x="730" y="435" />
            </Array>
          </mxGeometry>
        </mxCell>
        <mxCell id="VzhIrebD9ufiaJ7NJEK6-60" style="edgeStyle=none;rounded=1;orthogonalLoop=1;jettySize=auto;html=1;exitX=0;exitY=0.3333333333333333;exitDx=0;exitDy=0;exitPerimeter=0;entryX=1;entryY=0.5;entryDx=0;entryDy=0;startArrow=none;startFill=0;endArrow=none;endFill=0;strokeColor=#000000;" parent="e0sn9arD9QVaBJSPJb-r-1" source="VzhIrebD9ufiaJ7NJEK6-7" target="VzhIrebD9ufiaJ7NJEK6-42" edge="1">
          <mxGeometry relative="1" as="geometry">
            <Array as="points">
              <mxPoint x="730" y="380" />
              <mxPoint x="730" y="715" />
            </Array>
          </mxGeometry>
        </mxCell>
        <mxCell id="VzhIrebD9ufiaJ7NJEK6-65" style="edgeStyle=none;rounded=1;orthogonalLoop=1;jettySize=auto;html=1;exitX=0;exitY=0.3333333333333333;exitDx=0;exitDy=0;exitPerimeter=0;startArrow=none;startFill=0;endArrow=none;endFill=0;strokeColor=#000000;entryX=1;entryY=0.5;entryDx=0;entryDy=0;" parent="e0sn9arD9QVaBJSPJb-r-1" source="VzhIrebD9ufiaJ7NJEK6-7" target="VzhIrebD9ufiaJ7NJEK6-63" edge="1">
          <mxGeometry relative="1" as="geometry">
            <Array as="points">
              <mxPoint x="730" y="380" />
              <mxPoint x="730" y="225" />
            </Array>
          </mxGeometry>
        </mxCell>
        <mxCell id="VzhIrebD9ufiaJ7NJEK6-78" style="edgeStyle=none;rounded=1;orthogonalLoop=1;jettySize=auto;html=1;exitX=0;exitY=0.3333333333333333;exitDx=0;exitDy=0;exitPerimeter=0;entryX=1;entryY=0.5;entryDx=0;entryDy=0;startArrow=none;startFill=0;endArrow=none;endFill=0;strokeColor=#000000;" parent="e0sn9arD9QVaBJSPJb-r-1" source="VzhIrebD9ufiaJ7NJEK6-7" target="VzhIrebD9ufiaJ7NJEK6-77" edge="1">
          <mxGeometry relative="1" as="geometry">
            <Array as="points">
              <mxPoint x="730" y="380" />
              <mxPoint x="730" y="565" />
            </Array>
          </mxGeometry>
        </mxCell>
        <mxCell id="VzhIrebD9ufiaJ7NJEK6-82" style="edgeStyle=none;rounded=1;orthogonalLoop=1;jettySize=auto;html=1;exitX=0;exitY=0.3333333333333333;exitDx=0;exitDy=0;exitPerimeter=0;entryX=1;entryY=0.403;entryDx=0;entryDy=0;entryPerimeter=0;startArrow=none;startFill=0;endArrow=none;endFill=0;strokeColor=#000000;" parent="e0sn9arD9QVaBJSPJb-r-1" source="VzhIrebD9ufiaJ7NJEK6-7" target="VzhIrebD9ufiaJ7NJEK6-79" edge="1">
          <mxGeometry relative="1" as="geometry">
            <Array as="points">
              <mxPoint x="730" y="380" />
              <mxPoint x="730" y="478" />
            </Array>
          </mxGeometry>
        </mxCell>
        <mxCell id="VzhIrebD9ufiaJ7NJEK6-7" value="Database" style="shape=umlActor;verticalLabelPosition=bottom;verticalAlign=top;html=1;outlineConnect=0;" parent="e0sn9arD9QVaBJSPJb-r-1" vertex="1">
          <mxGeometry x="760" y="360" width="30" height="60" as="geometry" />
        </mxCell>
        <mxCell id="VzhIrebD9ufiaJ7NJEK6-11" value="Sign In" style="ellipse;whiteSpace=wrap;html=1;" parent="e0sn9arD9QVaBJSPJb-r-1" vertex="1">
          <mxGeometry x="230" y="80" width="100" height="70" as="geometry" />
        </mxCell>
        <mxCell id="VzhIrebD9ufiaJ7NJEK6-18" value="" style="endArrow=none;html=1;strokeColor=#000000;exitX=1;exitY=0.3333333333333333;exitDx=0;exitDy=0;exitPerimeter=0;" parent="e0sn9arD9QVaBJSPJb-r-1" source="VzhIrebD9ufiaJ7NJEK6-6" target="VzhIrebD9ufiaJ7NJEK6-11" edge="1">
          <mxGeometry width="50" height="50" relative="1" as="geometry">
            <mxPoint x="130" y="270" as="sourcePoint" />
            <mxPoint x="420" y="420" as="targetPoint" />
            <Array as="points">
              <mxPoint x="90" y="340" />
              <mxPoint x="90" y="115" />
            </Array>
          </mxGeometry>
        </mxCell>
        <mxCell id="VzhIrebD9ufiaJ7NJEK6-29" value="&amp;lt;&amp;lt;include&amp;gt;&amp;gt;" style="rounded=0;orthogonalLoop=1;jettySize=auto;html=1;strokeColor=#000000;dashed=1;endArrow=classic;endFill=1;" parent="e0sn9arD9QVaBJSPJb-r-1" source="VzhIrebD9ufiaJ7NJEK6-20" target="VzhIrebD9ufiaJ7NJEK6-28" edge="1">
          <mxGeometry relative="1" as="geometry" />
        </mxCell>
        <mxCell id="VzhIrebD9ufiaJ7NJEK6-20" value="Select products" style="ellipse;whiteSpace=wrap;html=1;" parent="e0sn9arD9QVaBJSPJb-r-1" vertex="1">
          <mxGeometry x="230" y="305" width="100" height="70" as="geometry" />
        </mxCell>
        <mxCell id="VzhIrebD9ufiaJ7NJEK6-53" style="edgeStyle=orthogonalEdgeStyle;rounded=1;orthogonalLoop=1;jettySize=auto;html=1;exitX=1;exitY=1;exitDx=0;exitDy=0;entryX=0.5;entryY=0;entryDx=0;entryDy=0;startArrow=none;startFill=0;endArrow=classic;endFill=1;strokeColor=#000000;dashed=1;elbow=vertical;" parent="e0sn9arD9QVaBJSPJb-r-1" source="VzhIrebD9ufiaJ7NJEK6-21" target="VzhIrebD9ufiaJ7NJEK6-42" edge="1">
          <mxGeometry relative="1" as="geometry">
            <Array as="points">
              <mxPoint x="315" y="500" />
              <mxPoint x="410" y="500" />
            </Array>
          </mxGeometry>
        </mxCell>
        <mxCell id="VzhIrebD9ufiaJ7NJEK6-55" value="&amp;lt;&amp;lt;include&amp;gt;&amp;gt;" style="edgeLabel;html=1;align=center;verticalAlign=middle;resizable=0;points=[];" parent="VzhIrebD9ufiaJ7NJEK6-53" vertex="1" connectable="0">
          <mxGeometry x="0.1008" y="-27" relative="1" as="geometry">
            <mxPoint x="27" y="12.940000000000001" as="offset" />
          </mxGeometry>
        </mxCell>
        <mxCell id="VzhIrebD9ufiaJ7NJEK6-21" value="Create Orders" style="ellipse;whiteSpace=wrap;html=1;" parent="e0sn9arD9QVaBJSPJb-r-1" vertex="1">
          <mxGeometry x="230" y="400" width="100" height="70" as="geometry" />
        </mxCell>
        <mxCell id="VzhIrebD9ufiaJ7NJEK6-22" value="Make Payments" style="ellipse;whiteSpace=wrap;html=1;" parent="e0sn9arD9QVaBJSPJb-r-1" vertex="1">
          <mxGeometry x="230" y="510" width="100" height="70" as="geometry" />
        </mxCell>
        <mxCell id="VzhIrebD9ufiaJ7NJEK6-23" value="" style="endArrow=none;html=1;strokeColor=#000000;entryX=0;entryY=0.5;entryDx=0;entryDy=0;exitX=1;exitY=0.3333333333333333;exitDx=0;exitDy=0;exitPerimeter=0;" parent="e0sn9arD9QVaBJSPJb-r-1" source="VzhIrebD9ufiaJ7NJEK6-6" target="VzhIrebD9ufiaJ7NJEK6-20" edge="1">
          <mxGeometry width="50" height="50" relative="1" as="geometry">
            <mxPoint x="130" y="270" as="sourcePoint" />
            <mxPoint x="420" y="420" as="targetPoint" />
            <Array as="points">
              <mxPoint x="90" y="340" />
              <mxPoint x="55" y="340" />
            </Array>
          </mxGeometry>
        </mxCell>
        <mxCell id="VzhIrebD9ufiaJ7NJEK6-25" value="" style="endArrow=none;html=1;strokeColor=#000000;entryX=0;entryY=0.5;entryDx=0;entryDy=0;exitX=1;exitY=0.3333333333333333;exitDx=0;exitDy=0;exitPerimeter=0;" parent="e0sn9arD9QVaBJSPJb-r-1" source="VzhIrebD9ufiaJ7NJEK6-6" target="VzhIrebD9ufiaJ7NJEK6-21" edge="1">
          <mxGeometry width="50" height="50" relative="1" as="geometry">
            <mxPoint x="120" y="390" as="sourcePoint" />
            <mxPoint x="420" y="420" as="targetPoint" />
            <Array as="points">
              <mxPoint x="90" y="340" />
              <mxPoint x="90" y="435" />
            </Array>
          </mxGeometry>
        </mxCell>
        <mxCell id="VzhIrebD9ufiaJ7NJEK6-26" value="Ship order to customer" style="ellipse;whiteSpace=wrap;html=1;" parent="e0sn9arD9QVaBJSPJb-r-1" vertex="1">
          <mxGeometry x="230" y="810" width="100" height="70" as="geometry" />
        </mxCell>
        <mxCell id="VzhIrebD9ufiaJ7NJEK6-27" value="" style="endArrow=none;html=1;strokeColor=#000000;entryX=1;entryY=0.3333333333333333;entryDx=0;entryDy=0;entryPerimeter=0;exitX=0;exitY=0.5;exitDx=0;exitDy=0;" parent="e0sn9arD9QVaBJSPJb-r-1" source="VzhIrebD9ufiaJ7NJEK6-44" target="VzhIrebD9ufiaJ7NJEK6-1" edge="1">
          <mxGeometry width="50" height="50" relative="1" as="geometry">
            <mxPoint x="370" y="460" as="sourcePoint" />
            <mxPoint x="420" y="410" as="targetPoint" />
            <Array as="points">
              <mxPoint x="90" y="655" />
              <mxPoint x="90" y="760" />
            </Array>
          </mxGeometry>
        </mxCell>
        <mxCell id="VzhIrebD9ufiaJ7NJEK6-31" style="rounded=0;orthogonalLoop=1;jettySize=auto;html=1;exitX=0;exitY=0.5;exitDx=0;exitDy=0;entryX=1;entryY=0.5;entryDx=0;entryDy=0;dashed=1;endArrow=none;endFill=0;strokeColor=#000000;startArrow=classic;startFill=1;" parent="e0sn9arD9QVaBJSPJb-r-1" source="VzhIrebD9ufiaJ7NJEK6-28" target="VzhIrebD9ufiaJ7NJEK6-21" edge="1">
          <mxGeometry relative="1" as="geometry" />
        </mxCell>
        <mxCell id="VzhIrebD9ufiaJ7NJEK6-32" value="&amp;lt;&amp;lt;extend&amp;gt;&amp;gt;" style="edgeLabel;html=1;align=center;verticalAlign=middle;resizable=0;points=[];" parent="VzhIrebD9ufiaJ7NJEK6-31" vertex="1" connectable="0">
          <mxGeometry x="0.1707" y="1" relative="1" as="geometry">
            <mxPoint x="11.65" y="-12.25" as="offset" />
          </mxGeometry>
        </mxCell>
        <mxCell id="VzhIrebD9ufiaJ7NJEK6-28" value="Check products quantity" style="ellipse;whiteSpace=wrap;html=1;" parent="e0sn9arD9QVaBJSPJb-r-1" vertex="1">
          <mxGeometry x="420" y="305" width="100" height="70" as="geometry" />
        </mxCell>
        <mxCell id="VzhIrebD9ufiaJ7NJEK6-35" value="&amp;lt;&amp;lt;include&amp;gt;&amp;gt;" style="rounded=0;orthogonalLoop=1;jettySize=auto;html=1;strokeColor=#000000;dashed=1;endArrow=classic;endFill=1;exitX=0.5;exitY=1;exitDx=0;exitDy=0;" parent="e0sn9arD9QVaBJSPJb-r-1" source="VzhIrebD9ufiaJ7NJEK6-21" target="VzhIrebD9ufiaJ7NJEK6-22" edge="1">
          <mxGeometry relative="1" as="geometry">
            <mxPoint x="347.6635592915982" y="440.0004642554258" as="sourcePoint" />
            <mxPoint x="449.99710406304644" y="454.3041505540519" as="targetPoint" />
          </mxGeometry>
        </mxCell>
        <mxCell id="VzhIrebD9ufiaJ7NJEK6-36" value="" style="endArrow=none;html=1;strokeColor=#000000;entryX=1;entryY=0.3333333333333333;entryDx=0;entryDy=0;entryPerimeter=0;exitX=0;exitY=0.5;exitDx=0;exitDy=0;" parent="e0sn9arD9QVaBJSPJb-r-1" source="VzhIrebD9ufiaJ7NJEK6-22" target="VzhIrebD9ufiaJ7NJEK6-6" edge="1">
          <mxGeometry width="50" height="50" relative="1" as="geometry">
            <mxPoint x="370" y="460" as="sourcePoint" />
            <mxPoint x="420" y="410" as="targetPoint" />
            <Array as="points">
              <mxPoint x="90" y="545" />
              <mxPoint x="90" y="340" />
            </Array>
          </mxGeometry>
        </mxCell>
        <mxCell id="VzhIrebD9ufiaJ7NJEK6-37" style="rounded=0;orthogonalLoop=1;jettySize=auto;html=1;exitX=0.5;exitY=1;exitDx=0;exitDy=0;entryX=0.5;entryY=0;entryDx=0;entryDy=0;dashed=1;endArrow=none;endFill=0;strokeColor=#000000;startArrow=classic;startFill=1;" parent="e0sn9arD9QVaBJSPJb-r-1" source="VzhIrebD9ufiaJ7NJEK6-44" target="VzhIrebD9ufiaJ7NJEK6-26" edge="1">
          <mxGeometry relative="1" as="geometry">
            <mxPoint x="560" y="450" as="sourcePoint" />
            <mxPoint x="460" y="510" as="targetPoint" />
          </mxGeometry>
        </mxCell>
        <mxCell id="VzhIrebD9ufiaJ7NJEK6-38" value="&amp;lt;&amp;lt;extend&amp;gt;&amp;gt;" style="edgeLabel;html=1;align=center;verticalAlign=middle;resizable=0;points=[];" parent="VzhIrebD9ufiaJ7NJEK6-37" vertex="1" connectable="0">
          <mxGeometry x="0.1707" y="1" relative="1" as="geometry">
            <mxPoint as="offset" />
          </mxGeometry>
        </mxCell>
        <mxCell id="VzhIrebD9ufiaJ7NJEK6-42" value="Check Delivery Address" style="ellipse;whiteSpace=wrap;html=1;" parent="e0sn9arD9QVaBJSPJb-r-1" vertex="1">
          <mxGeometry x="360" y="680" width="100" height="70" as="geometry" />
        </mxCell>
        <mxCell id="VzhIrebD9ufiaJ7NJEK6-44" value="Check Payments" style="ellipse;whiteSpace=wrap;html=1;" parent="e0sn9arD9QVaBJSPJb-r-1" vertex="1">
          <mxGeometry x="230" y="620" width="100" height="70" as="geometry" />
        </mxCell>
        <mxCell id="VzhIrebD9ufiaJ7NJEK6-46" value="&amp;lt;&amp;lt;include&amp;gt;&amp;gt;" style="rounded=0;orthogonalLoop=1;jettySize=auto;html=1;strokeColor=#000000;dashed=1;endArrow=classic;endFill=1;exitX=0.5;exitY=1;exitDx=0;exitDy=0;entryX=0.5;entryY=0;entryDx=0;entryDy=0;" parent="e0sn9arD9QVaBJSPJb-r-1" source="VzhIrebD9ufiaJ7NJEK6-22" target="VzhIrebD9ufiaJ7NJEK6-44" edge="1">
          <mxGeometry relative="1" as="geometry">
            <mxPoint x="290" y="490" as="sourcePoint" />
            <mxPoint x="290" y="530" as="targetPoint" />
          </mxGeometry>
        </mxCell>
        <mxCell id="VzhIrebD9ufiaJ7NJEK6-50" style="rounded=0;orthogonalLoop=1;jettySize=auto;html=1;exitX=0.5;exitY=1;exitDx=0;exitDy=0;dashed=1;endArrow=none;endFill=0;strokeColor=#000000;startArrow=classic;startFill=1;entryX=0.5;entryY=0;entryDx=0;entryDy=0;" parent="e0sn9arD9QVaBJSPJb-r-1" source="VzhIrebD9ufiaJ7NJEK6-42" target="VzhIrebD9ufiaJ7NJEK6-26" edge="1">
          <mxGeometry relative="1" as="geometry">
            <mxPoint x="475" y="670" as="sourcePoint" />
            <mxPoint x="370" y="770" as="targetPoint" />
          </mxGeometry>
        </mxCell>
        <mxCell id="VzhIrebD9ufiaJ7NJEK6-51" value="&amp;lt;&amp;lt;extend&amp;gt;&amp;gt;" style="edgeLabel;html=1;align=center;verticalAlign=middle;resizable=0;points=[];" parent="VzhIrebD9ufiaJ7NJEK6-50" vertex="1" connectable="0">
          <mxGeometry x="0.1707" y="1" relative="1" as="geometry">
            <mxPoint as="offset" />
          </mxGeometry>
        </mxCell>
        <mxCell id="VzhIrebD9ufiaJ7NJEK6-63" value="Sign Up" style="ellipse;whiteSpace=wrap;html=1;" parent="e0sn9arD9QVaBJSPJb-r-1" vertex="1">
          <mxGeometry x="230" y="190" width="100" height="70" as="geometry" />
        </mxCell>
        <mxCell id="VzhIrebD9ufiaJ7NJEK6-74" value="&amp;lt;&amp;lt;include&amp;gt;&amp;gt;" style="rounded=0;orthogonalLoop=1;jettySize=auto;html=1;strokeColor=#000000;dashed=1;endArrow=classic;endFill=1;exitX=1;exitY=0.5;exitDx=0;exitDy=0;entryX=0.5;entryY=0;entryDx=0;entryDy=0;" parent="e0sn9arD9QVaBJSPJb-r-1" source="VzhIrebD9ufiaJ7NJEK6-11" target="VzhIrebD9ufiaJ7NJEK6-77" edge="1">
          <mxGeometry x="-0.5115" relative="1" as="geometry">
            <mxPoint x="338.9902029390173" y="371.9986004198595" as="sourcePoint" />
            <mxPoint x="451.0097970609827" y="388.0013995801403" as="targetPoint" />
            <Array as="points">
              <mxPoint x="630" y="115" />
            </Array>
            <mxPoint as="offset" />
          </mxGeometry>
        </mxCell>
        <mxCell id="VzhIrebD9ufiaJ7NJEK6-76" value="&amp;lt;&amp;lt;include&amp;gt;&amp;gt;" style="rounded=0;orthogonalLoop=1;jettySize=auto;html=1;strokeColor=#000000;dashed=1;endArrow=classic;endFill=1;exitX=1;exitY=0;exitDx=0;exitDy=0;entryX=0.5;entryY=0;entryDx=0;entryDy=0;" parent="e0sn9arD9QVaBJSPJb-r-1" source="VzhIrebD9ufiaJ7NJEK6-63" target="VzhIrebD9ufiaJ7NJEK6-77" edge="1">
          <mxGeometry x="-0.4026" relative="1" as="geometry">
            <mxPoint x="340" y="155" as="sourcePoint" />
            <mxPoint x="610" y="155" as="targetPoint" />
            <Array as="points">
              <mxPoint x="630" y="200" />
            </Array>
            <mxPoint as="offset" />
          </mxGeometry>
        </mxCell>
        <mxCell id="VzhIrebD9ufiaJ7NJEK6-77" value="Track Events" style="ellipse;whiteSpace=wrap;html=1;" parent="e0sn9arD9QVaBJSPJb-r-1" vertex="1">
          <mxGeometry x="580" y="530" width="100" height="70" as="geometry" />
        </mxCell>
        <mxCell id="VzhIrebD9ufiaJ7NJEK6-79" value="Change products quantity" style="ellipse;whiteSpace=wrap;html=1;" parent="e0sn9arD9QVaBJSPJb-r-1" vertex="1">
          <mxGeometry x="420" y="450" width="100" height="70" as="geometry" />
        </mxCell>
        <mxCell id="VzhIrebD9ufiaJ7NJEK6-81" value="&amp;lt;&amp;lt;include&amp;gt;&amp;gt;" style="rounded=0;orthogonalLoop=1;jettySize=auto;html=1;strokeColor=#000000;dashed=1;endArrow=classic;endFill=1;exitX=1;exitY=1;exitDx=0;exitDy=0;entryX=0;entryY=0;entryDx=0;entryDy=0;" parent="e0sn9arD9QVaBJSPJb-r-1" source="VzhIrebD9ufiaJ7NJEK6-21" target="VzhIrebD9ufiaJ7NJEK6-79" edge="1">
          <mxGeometry relative="1" as="geometry">
            <mxPoint x="290" y="480" as="sourcePoint" />
            <mxPoint x="290" y="520" as="targetPoint" />
            <Array as="points" />
          </mxGeometry>
        </mxCell>
        <mxCell id="VzhIrebD9ufiaJ7NJEK6-84" value="Maintain Products" style="ellipse;whiteSpace=wrap;html=1;" parent="e0sn9arD9QVaBJSPJb-r-1" vertex="1">
          <mxGeometry x="230" y="900" width="100" height="70" as="geometry" />
        </mxCell>
        <mxCell id="VzhIrebD9ufiaJ7NJEK6-86" value="&amp;lt;&amp;lt;include&amp;gt;&amp;gt;" style="rounded=0;orthogonalLoop=1;jettySize=auto;html=1;strokeColor=#000000;dashed=1;endArrow=classic;endFill=1;exitX=1;exitY=0;exitDx=0;exitDy=0;entryX=0.5;entryY=0;entryDx=0;entryDy=0;" parent="e0sn9arD9QVaBJSPJb-r-1" source="VzhIrebD9ufiaJ7NJEK6-79" target="VzhIrebD9ufiaJ7NJEK6-77" edge="1">
          <mxGeometry x="-0.2464" relative="1" as="geometry">
            <mxPoint x="340" y="235" as="sourcePoint" />
            <mxPoint x="590.0000000000043" y="145" as="targetPoint" />
            <Array as="points">
              <mxPoint x="630" y="460" />
            </Array>
            <mxPoint as="offset" />
          </mxGeometry>
        </mxCell>
        <mxCell id="VzhIrebD9ufiaJ7NJEK6-88" value="&amp;lt;&amp;lt;include&amp;gt;&amp;gt;" style="rounded=0;orthogonalLoop=1;jettySize=auto;html=1;strokeColor=#000000;dashed=1;endArrow=classic;endFill=1;exitX=1;exitY=0;exitDx=0;exitDy=0;entryX=0.5;entryY=1;entryDx=0;entryDy=0;" parent="e0sn9arD9QVaBJSPJb-r-1" source="VzhIrebD9ufiaJ7NJEK6-84" target="VzhIrebD9ufiaJ7NJEK6-77" edge="1">
          <mxGeometry x="-0.4532" relative="1" as="geometry">
            <mxPoint x="340" y="855" as="sourcePoint" />
            <mxPoint x="430.0000000000043" y="855" as="targetPoint" />
            <Array as="points">
              <mxPoint x="630" y="910" />
            </Array>
            <mxPoint x="-1" as="offset" />
          </mxGeometry>
        </mxCell>
        <mxCell id="VzhIrebD9ufiaJ7NJEK6-89" value="&amp;lt;&amp;lt;include&amp;gt;&amp;gt;" style="rounded=0;orthogonalLoop=1;jettySize=auto;html=1;strokeColor=#000000;dashed=1;endArrow=classic;endFill=1;exitX=1;exitY=0;exitDx=0;exitDy=0;entryX=0.5;entryY=1;entryDx=0;entryDy=0;dashPattern=1 2;" parent="e0sn9arD9QVaBJSPJb-r-1" source="VzhIrebD9ufiaJ7NJEK6-42" target="VzhIrebD9ufiaJ7NJEK6-77" edge="1">
          <mxGeometry x="-0.3158" relative="1" as="geometry">
            <mxPoint x="480" y="820" as="sourcePoint" />
            <mxPoint x="640" y="550" as="targetPoint" />
            <Array as="points">
              <mxPoint x="630" y="690" />
            </Array>
            <mxPoint as="offset" />
          </mxGeometry>
        </mxCell>
        <mxCell id="VzhIrebD9ufiaJ7NJEK6-90" style="edgeStyle=none;rounded=1;orthogonalLoop=1;jettySize=auto;html=1;exitX=0;exitY=0.3333333333333333;exitDx=0;exitDy=0;exitPerimeter=0;entryX=1;entryY=0.5;entryDx=0;entryDy=0;startArrow=none;startFill=0;endArrow=none;endFill=0;strokeColor=#000000;" parent="e0sn9arD9QVaBJSPJb-r-1" source="VzhIrebD9ufiaJ7NJEK6-7" target="VzhIrebD9ufiaJ7NJEK6-84" edge="1">
          <mxGeometry relative="1" as="geometry">
            <mxPoint x="770" y="390" as="sourcePoint" />
            <mxPoint x="470" y="725" as="targetPoint" />
            <Array as="points">
              <mxPoint x="730" y="380" />
              <mxPoint x="730" y="935" />
            </Array>
          </mxGeometry>
        </mxCell>
        <mxCell id="VzhIrebD9ufiaJ7NJEK6-91" value="&amp;lt;&amp;lt;include&amp;gt;&amp;gt;" style="rounded=0;orthogonalLoop=1;jettySize=auto;html=1;strokeColor=#000000;dashed=1;endArrow=classic;endFill=1;exitX=1;exitY=0;exitDx=0;exitDy=0;entryX=0.5;entryY=0;entryDx=0;entryDy=0;" parent="e0sn9arD9QVaBJSPJb-r-1" source="VzhIrebD9ufiaJ7NJEK6-28" target="VzhIrebD9ufiaJ7NJEK6-77" edge="1">
          <mxGeometry x="-0.584" relative="1" as="geometry">
            <mxPoint x="290" y="200" as="sourcePoint" />
            <mxPoint x="640" y="480" as="targetPoint" />
            <Array as="points">
              <mxPoint x="630" y="315" />
            </Array>
            <mxPoint as="offset" />
          </mxGeometry>
        </mxCell>
        <mxCell id="VzhIrebD9ufiaJ7NJEK6-92" style="edgeStyle=orthogonalEdgeStyle;rounded=1;orthogonalLoop=1;jettySize=auto;html=1;exitX=1;exitY=0;exitDx=0;exitDy=0;startArrow=none;startFill=0;endArrow=classic;endFill=1;strokeColor=#000000;dashed=1;entryX=0;entryY=0;entryDx=0;entryDy=0;" parent="e0sn9arD9QVaBJSPJb-r-1" source="VzhIrebD9ufiaJ7NJEK6-21" target="VzhIrebD9ufiaJ7NJEK6-77" edge="1">
          <mxGeometry relative="1" as="geometry">
            <mxPoint x="325.35533905932743" y="469.74873734152925" as="sourcePoint" />
            <mxPoint x="420" y="690" as="targetPoint" />
            <Array as="points">
              <mxPoint x="595" y="410" />
            </Array>
          </mxGeometry>
        </mxCell>
        <mxCell id="VzhIrebD9ufiaJ7NJEK6-93" value="&amp;lt;&amp;lt;include&amp;gt;&amp;gt;" style="edgeLabel;html=1;align=center;verticalAlign=middle;resizable=0;points=[];" parent="VzhIrebD9ufiaJ7NJEK6-92" vertex="1" connectable="0">
          <mxGeometry x="0.1008" y="-27" relative="1" as="geometry">
            <mxPoint x="-40.35" y="-27.27" as="offset" />
          </mxGeometry>
        </mxCell>
      </root>
    </mxGraphModel>
  </diagram>
  <diagram id="R2lEEEUBdFMjLlhIrx00" name="ERD Shop Tables">
    <mxGraphModel dx="2333" dy="783" grid="1" gridSize="10" guides="1" tooltips="1" connect="1" arrows="1" fold="1" page="1" pageScale="1" pageWidth="850" pageHeight="1100" math="0" shadow="0" extFonts="Permanent Marker^https://fonts.googleapis.com/css?family=Permanent+Marker">
      <root>
        <mxCell id="0" />
        <mxCell id="1" parent="0" />
        <mxCell id="Mm3gTE9nhFV8aDJE3xkG-153" value="Customer" style="shape=table;startSize=30;container=1;collapsible=1;childLayout=tableLayout;fixedRows=1;rowLines=0;fontStyle=1;align=center;resizeLast=1;flipH=1;" parent="1" vertex="1">
          <mxGeometry x="40" y="150" width="190" height="160" as="geometry">
            <mxRectangle x="40" y="40" width="90" height="30" as="alternateBounds" />
          </mxGeometry>
        </mxCell>
        <mxCell id="Mm3gTE9nhFV8aDJE3xkG-154" value="" style="shape=partialRectangle;collapsible=0;dropTarget=0;pointerEvents=0;fillColor=none;top=0;left=0;bottom=1;right=0;points=[[0,0.5],[1,0.5]];portConstraint=eastwest;" parent="Mm3gTE9nhFV8aDJE3xkG-153" vertex="1">
          <mxGeometry y="30" width="190" height="30" as="geometry" />
        </mxCell>
        <mxCell id="Mm3gTE9nhFV8aDJE3xkG-155" value="PK" style="shape=partialRectangle;connectable=0;fillColor=none;top=0;left=0;bottom=0;right=0;fontStyle=1;overflow=hidden;" parent="Mm3gTE9nhFV8aDJE3xkG-154" vertex="1">
          <mxGeometry width="30" height="30" as="geometry" />
        </mxCell>
        <mxCell id="Mm3gTE9nhFV8aDJE3xkG-156" value="Customer ID" style="shape=partialRectangle;connectable=0;fillColor=none;top=0;left=0;bottom=0;right=0;align=left;spacingLeft=6;fontStyle=5;overflow=hidden;" parent="Mm3gTE9nhFV8aDJE3xkG-154" vertex="1">
          <mxGeometry x="30" width="160" height="30" as="geometry" />
        </mxCell>
        <mxCell id="5mIJEUFTQ7qlV4UU8vpN-74" value="" style="shape=partialRectangle;collapsible=0;dropTarget=0;pointerEvents=0;fillColor=none;top=0;left=0;bottom=0;right=0;points=[[0,0.5],[1,0.5]];portConstraint=eastwest;" vertex="1" parent="Mm3gTE9nhFV8aDJE3xkG-153">
          <mxGeometry y="60" width="190" height="30" as="geometry" />
        </mxCell>
        <mxCell id="5mIJEUFTQ7qlV4UU8vpN-75" value="FK" style="shape=partialRectangle;connectable=0;fillColor=none;top=0;left=0;bottom=0;right=0;editable=1;overflow=hidden;" vertex="1" parent="5mIJEUFTQ7qlV4UU8vpN-74">
          <mxGeometry width="30" height="30" as="geometry" />
        </mxCell>
        <mxCell id="5mIJEUFTQ7qlV4UU8vpN-76" value="ContactID" style="shape=partialRectangle;connectable=0;fillColor=none;top=0;left=0;bottom=0;right=0;align=left;spacingLeft=6;overflow=hidden;" vertex="1" parent="5mIJEUFTQ7qlV4UU8vpN-74">
          <mxGeometry x="30" width="160" height="30" as="geometry" />
        </mxCell>
        <mxCell id="vSh4W7z1Wrmtp2xvGvMz-70" value="" style="shape=partialRectangle;collapsible=0;dropTarget=0;pointerEvents=0;fillColor=none;top=0;left=0;bottom=0;right=0;points=[[0,0.5],[1,0.5]];portConstraint=eastwest;" parent="Mm3gTE9nhFV8aDJE3xkG-153" vertex="1">
          <mxGeometry y="90" width="190" height="30" as="geometry" />
        </mxCell>
        <mxCell id="vSh4W7z1Wrmtp2xvGvMz-71" value="FK" style="shape=partialRectangle;connectable=0;fillColor=none;top=0;left=0;bottom=0;right=0;editable=1;overflow=hidden;" parent="vSh4W7z1Wrmtp2xvGvMz-70" vertex="1">
          <mxGeometry width="30" height="30" as="geometry" />
        </mxCell>
        <mxCell id="vSh4W7z1Wrmtp2xvGvMz-72" value="AddressID" style="shape=partialRectangle;connectable=0;fillColor=none;top=0;left=0;bottom=0;right=0;align=left;spacingLeft=6;overflow=hidden;" parent="vSh4W7z1Wrmtp2xvGvMz-70" vertex="1">
          <mxGeometry x="30" width="160" height="30" as="geometry" />
        </mxCell>
        <mxCell id="Dsom1omeqRga9T4WdXha-7" value="" style="shape=partialRectangle;collapsible=0;dropTarget=0;pointerEvents=0;fillColor=none;top=0;left=0;bottom=0;right=0;points=[[0,0.5],[1,0.5]];portConstraint=eastwest;" vertex="1" parent="Mm3gTE9nhFV8aDJE3xkG-153">
          <mxGeometry y="120" width="190" height="40" as="geometry" />
        </mxCell>
        <mxCell id="Dsom1omeqRga9T4WdXha-8" value="" style="shape=partialRectangle;connectable=0;fillColor=none;top=0;left=0;bottom=0;right=0;editable=1;overflow=hidden;" vertex="1" parent="Dsom1omeqRga9T4WdXha-7">
          <mxGeometry width="30" height="40" as="geometry" />
        </mxCell>
        <mxCell id="Dsom1omeqRga9T4WdXha-9" value="Discount" style="shape=partialRectangle;connectable=0;fillColor=none;top=0;left=0;bottom=0;right=0;align=left;spacingLeft=6;overflow=hidden;" vertex="1" parent="Dsom1omeqRga9T4WdXha-7">
          <mxGeometry x="30" width="160" height="40" as="geometry" />
        </mxCell>
        <mxCell id="Mm3gTE9nhFV8aDJE3xkG-168" value="" style="shape=partialRectangle;collapsible=0;dropTarget=0;pointerEvents=0;fillColor=none;top=0;left=0;bottom=0;right=0;points=[[0,0.5],[1,0.5]];portConstraint=eastwest;flipH=1;" parent="1" vertex="1">
          <mxGeometry x="474" y="920" width="180" height="30" as="geometry" />
        </mxCell>
        <mxCell id="Mm3gTE9nhFV8aDJE3xkG-169" value="" style="shape=partialRectangle;connectable=0;fillColor=none;top=0;left=0;bottom=0;right=0;editable=1;overflow=hidden;" parent="Mm3gTE9nhFV8aDJE3xkG-168" vertex="1">
          <mxGeometry width="30" height="30" as="geometry" />
        </mxCell>
        <mxCell id="CFyH6eeE_y9WPXT-orT0-1" value="Orders" style="shape=table;startSize=30;container=1;collapsible=1;childLayout=tableLayout;fixedRows=1;rowLines=0;fontStyle=1;align=center;resizeLast=1;flipH=1;" parent="1" vertex="1">
          <mxGeometry x="350" y="350" width="190" height="360" as="geometry" />
        </mxCell>
        <mxCell id="CFyH6eeE_y9WPXT-orT0-2" value="" style="shape=partialRectangle;collapsible=0;dropTarget=0;pointerEvents=0;fillColor=none;top=0;left=0;bottom=1;right=0;points=[[0,0.5],[1,0.5]];portConstraint=eastwest;" parent="CFyH6eeE_y9WPXT-orT0-1" vertex="1">
          <mxGeometry y="30" width="190" height="30" as="geometry" />
        </mxCell>
        <mxCell id="CFyH6eeE_y9WPXT-orT0-3" value="PK" style="shape=partialRectangle;connectable=0;fillColor=none;top=0;left=0;bottom=0;right=0;fontStyle=1;overflow=hidden;" parent="CFyH6eeE_y9WPXT-orT0-2" vertex="1">
          <mxGeometry width="30" height="30" as="geometry" />
        </mxCell>
        <mxCell id="CFyH6eeE_y9WPXT-orT0-4" value="OrderID" style="shape=partialRectangle;connectable=0;fillColor=none;top=0;left=0;bottom=0;right=0;align=left;spacingLeft=6;fontStyle=5;overflow=hidden;" parent="CFyH6eeE_y9WPXT-orT0-2" vertex="1">
          <mxGeometry x="30" width="160" height="30" as="geometry" />
        </mxCell>
        <mxCell id="CFyH6eeE_y9WPXT-orT0-5" value="" style="shape=partialRectangle;collapsible=0;dropTarget=0;pointerEvents=0;fillColor=none;top=0;left=0;bottom=0;right=0;points=[[0,0.5],[1,0.5]];portConstraint=eastwest;" parent="CFyH6eeE_y9WPXT-orT0-1" vertex="1">
          <mxGeometry y="60" width="190" height="30" as="geometry" />
        </mxCell>
        <mxCell id="CFyH6eeE_y9WPXT-orT0-6" value="FK" style="shape=partialRectangle;connectable=0;fillColor=none;top=0;left=0;bottom=0;right=0;editable=1;overflow=hidden;" parent="CFyH6eeE_y9WPXT-orT0-5" vertex="1">
          <mxGeometry width="30" height="30" as="geometry" />
        </mxCell>
        <mxCell id="CFyH6eeE_y9WPXT-orT0-7" value="CustomerID" style="shape=partialRectangle;connectable=0;fillColor=none;top=0;left=0;bottom=0;right=0;align=left;spacingLeft=6;overflow=hidden;" parent="CFyH6eeE_y9WPXT-orT0-5" vertex="1">
          <mxGeometry x="30" width="160" height="30" as="geometry" />
        </mxCell>
        <mxCell id="2IE5AS93_SuTDEM4m2bp-1" value="" style="shape=partialRectangle;collapsible=0;dropTarget=0;pointerEvents=0;fillColor=none;top=0;left=0;bottom=0;right=0;points=[[0,0.5],[1,0.5]];portConstraint=eastwest;" parent="CFyH6eeE_y9WPXT-orT0-1" vertex="1">
          <mxGeometry y="90" width="190" height="30" as="geometry" />
        </mxCell>
        <mxCell id="2IE5AS93_SuTDEM4m2bp-2" value="FK" style="shape=partialRectangle;connectable=0;fillColor=none;top=0;left=0;bottom=0;right=0;editable=1;overflow=hidden;" parent="2IE5AS93_SuTDEM4m2bp-1" vertex="1">
          <mxGeometry width="30" height="30" as="geometry" />
        </mxCell>
        <mxCell id="2IE5AS93_SuTDEM4m2bp-3" value="ManagerID" style="shape=partialRectangle;connectable=0;fillColor=none;top=0;left=0;bottom=0;right=0;align=left;spacingLeft=6;overflow=hidden;" parent="2IE5AS93_SuTDEM4m2bp-1" vertex="1">
          <mxGeometry x="30" width="160" height="30" as="geometry" />
        </mxCell>
        <mxCell id="5mIJEUFTQ7qlV4UU8vpN-1" value="" style="shape=partialRectangle;collapsible=0;dropTarget=0;pointerEvents=0;fillColor=none;top=0;left=0;bottom=0;right=0;points=[[0,0.5],[1,0.5]];portConstraint=eastwest;" vertex="1" parent="CFyH6eeE_y9WPXT-orT0-1">
          <mxGeometry y="120" width="190" height="30" as="geometry" />
        </mxCell>
        <mxCell id="5mIJEUFTQ7qlV4UU8vpN-2" value="FK" style="shape=partialRectangle;connectable=0;fillColor=none;top=0;left=0;bottom=0;right=0;editable=1;overflow=hidden;" vertex="1" parent="5mIJEUFTQ7qlV4UU8vpN-1">
          <mxGeometry width="30" height="30" as="geometry" />
        </mxCell>
        <mxCell id="5mIJEUFTQ7qlV4UU8vpN-3" value="PaymentID" style="shape=partialRectangle;connectable=0;fillColor=none;top=0;left=0;bottom=0;right=0;align=left;spacingLeft=6;overflow=hidden;" vertex="1" parent="5mIJEUFTQ7qlV4UU8vpN-1">
          <mxGeometry x="30" width="160" height="30" as="geometry" />
        </mxCell>
        <mxCell id="CFyH6eeE_y9WPXT-orT0-8" value="" style="shape=partialRectangle;collapsible=0;dropTarget=0;pointerEvents=0;fillColor=none;top=0;left=0;bottom=0;right=0;points=[[0,0.5],[1,0.5]];portConstraint=eastwest;" parent="CFyH6eeE_y9WPXT-orT0-1" vertex="1">
          <mxGeometry y="150" width="190" height="30" as="geometry" />
        </mxCell>
        <mxCell id="CFyH6eeE_y9WPXT-orT0-9" value="" style="shape=partialRectangle;connectable=0;fillColor=none;top=0;left=0;bottom=0;right=0;editable=1;overflow=hidden;" parent="CFyH6eeE_y9WPXT-orT0-8" vertex="1">
          <mxGeometry width="30" height="30" as="geometry" />
        </mxCell>
        <mxCell id="CFyH6eeE_y9WPXT-orT0-10" value="OrderStatus" style="shape=partialRectangle;connectable=0;fillColor=none;top=0;left=0;bottom=0;right=0;align=left;spacingLeft=6;overflow=hidden;" parent="CFyH6eeE_y9WPXT-orT0-8" vertex="1">
          <mxGeometry x="30" width="160" height="30" as="geometry" />
        </mxCell>
        <mxCell id="CFyH6eeE_y9WPXT-orT0-11" value="" style="shape=partialRectangle;collapsible=0;dropTarget=0;pointerEvents=0;fillColor=none;top=0;left=0;bottom=0;right=0;points=[[0,0.5],[1,0.5]];portConstraint=eastwest;" parent="CFyH6eeE_y9WPXT-orT0-1" vertex="1">
          <mxGeometry y="180" width="190" height="30" as="geometry" />
        </mxCell>
        <mxCell id="CFyH6eeE_y9WPXT-orT0-12" value="" style="shape=partialRectangle;connectable=0;fillColor=none;top=0;left=0;bottom=0;right=0;editable=1;overflow=hidden;" parent="CFyH6eeE_y9WPXT-orT0-11" vertex="1">
          <mxGeometry width="30" height="30" as="geometry" />
        </mxCell>
        <mxCell id="CFyH6eeE_y9WPXT-orT0-13" value="OrderDate" style="shape=partialRectangle;connectable=0;fillColor=none;top=0;left=0;bottom=0;right=0;align=left;spacingLeft=6;overflow=hidden;" parent="CFyH6eeE_y9WPXT-orT0-11" vertex="1">
          <mxGeometry x="30" width="160" height="30" as="geometry" />
        </mxCell>
        <mxCell id="vSh4W7z1Wrmtp2xvGvMz-82" value="" style="shape=partialRectangle;collapsible=0;dropTarget=0;pointerEvents=0;fillColor=none;top=0;left=0;bottom=0;right=0;points=[[0,0.5],[1,0.5]];portConstraint=eastwest;" parent="CFyH6eeE_y9WPXT-orT0-1" vertex="1">
          <mxGeometry y="210" width="190" height="30" as="geometry" />
        </mxCell>
        <mxCell id="vSh4W7z1Wrmtp2xvGvMz-83" value="" style="shape=partialRectangle;connectable=0;fillColor=none;top=0;left=0;bottom=0;right=0;editable=1;overflow=hidden;" parent="vSh4W7z1Wrmtp2xvGvMz-82" vertex="1">
          <mxGeometry width="30" height="30" as="geometry" />
        </mxCell>
        <mxCell id="vSh4W7z1Wrmtp2xvGvMz-84" value="RequiredDate" style="shape=partialRectangle;connectable=0;fillColor=none;top=0;left=0;bottom=0;right=0;align=left;spacingLeft=6;overflow=hidden;" parent="vSh4W7z1Wrmtp2xvGvMz-82" vertex="1">
          <mxGeometry x="30" width="160" height="30" as="geometry" />
        </mxCell>
        <mxCell id="vSh4W7z1Wrmtp2xvGvMz-85" value="" style="shape=partialRectangle;collapsible=0;dropTarget=0;pointerEvents=0;fillColor=none;top=0;left=0;bottom=0;right=0;points=[[0,0.5],[1,0.5]];portConstraint=eastwest;" parent="CFyH6eeE_y9WPXT-orT0-1" vertex="1">
          <mxGeometry y="240" width="190" height="30" as="geometry" />
        </mxCell>
        <mxCell id="vSh4W7z1Wrmtp2xvGvMz-86" value="" style="shape=partialRectangle;connectable=0;fillColor=none;top=0;left=0;bottom=0;right=0;editable=1;overflow=hidden;" parent="vSh4W7z1Wrmtp2xvGvMz-85" vertex="1">
          <mxGeometry width="30" height="30" as="geometry" />
        </mxCell>
        <mxCell id="vSh4W7z1Wrmtp2xvGvMz-87" value="ShipDate" style="shape=partialRectangle;connectable=0;fillColor=none;top=0;left=0;bottom=0;right=0;align=left;spacingLeft=6;overflow=hidden;" parent="vSh4W7z1Wrmtp2xvGvMz-85" vertex="1">
          <mxGeometry x="30" width="160" height="30" as="geometry" />
        </mxCell>
        <mxCell id="JWprUIELTiPrC8QZkW9A-4" value="" style="shape=partialRectangle;collapsible=0;dropTarget=0;pointerEvents=0;fillColor=none;top=0;left=0;bottom=0;right=0;points=[[0,0.5],[1,0.5]];portConstraint=eastwest;" parent="CFyH6eeE_y9WPXT-orT0-1" vertex="1">
          <mxGeometry y="270" width="190" height="30" as="geometry" />
        </mxCell>
        <mxCell id="JWprUIELTiPrC8QZkW9A-5" value="" style="shape=partialRectangle;connectable=0;fillColor=none;top=0;left=0;bottom=0;right=0;editable=1;overflow=hidden;" parent="JWprUIELTiPrC8QZkW9A-4" vertex="1">
          <mxGeometry width="30" height="30" as="geometry" />
        </mxCell>
        <mxCell id="JWprUIELTiPrC8QZkW9A-6" value="Freight" style="shape=partialRectangle;connectable=0;fillColor=none;top=0;left=0;bottom=0;right=0;align=left;spacingLeft=6;overflow=hidden;" parent="JWprUIELTiPrC8QZkW9A-4" vertex="1">
          <mxGeometry x="30" width="160" height="30" as="geometry" />
        </mxCell>
        <mxCell id="JWprUIELTiPrC8QZkW9A-7" value="" style="shape=partialRectangle;collapsible=0;dropTarget=0;pointerEvents=0;fillColor=none;top=0;left=0;bottom=0;right=0;points=[[0,0.5],[1,0.5]];portConstraint=eastwest;" parent="CFyH6eeE_y9WPXT-orT0-1" vertex="1">
          <mxGeometry y="300" width="190" height="30" as="geometry" />
        </mxCell>
        <mxCell id="JWprUIELTiPrC8QZkW9A-8" value="" style="shape=partialRectangle;connectable=0;fillColor=none;top=0;left=0;bottom=0;right=0;editable=1;overflow=hidden;" parent="JWprUIELTiPrC8QZkW9A-7" vertex="1">
          <mxGeometry width="30" height="30" as="geometry" />
        </mxCell>
        <mxCell id="JWprUIELTiPrC8QZkW9A-9" value="SalesTax" style="shape=partialRectangle;connectable=0;fillColor=none;top=0;left=0;bottom=0;right=0;align=left;spacingLeft=6;overflow=hidden;" parent="JWprUIELTiPrC8QZkW9A-7" vertex="1">
          <mxGeometry x="30" width="160" height="30" as="geometry" />
        </mxCell>
        <mxCell id="JWprUIELTiPrC8QZkW9A-57" value="" style="shape=partialRectangle;collapsible=0;dropTarget=0;pointerEvents=0;fillColor=none;top=0;left=0;bottom=0;right=0;points=[[0,0.5],[1,0.5]];portConstraint=eastwest;" parent="CFyH6eeE_y9WPXT-orT0-1" vertex="1">
          <mxGeometry y="330" width="190" height="30" as="geometry" />
        </mxCell>
        <mxCell id="JWprUIELTiPrC8QZkW9A-58" value="FK" style="shape=partialRectangle;connectable=0;fillColor=none;top=0;left=0;bottom=0;right=0;editable=1;overflow=hidden;" parent="JWprUIELTiPrC8QZkW9A-57" vertex="1">
          <mxGeometry width="30" height="30" as="geometry" />
        </mxCell>
        <mxCell id="JWprUIELTiPrC8QZkW9A-59" value="ShipAddressID" style="shape=partialRectangle;connectable=0;fillColor=none;top=0;left=0;bottom=0;right=0;align=left;spacingLeft=6;overflow=hidden;" parent="JWprUIELTiPrC8QZkW9A-57" vertex="1">
          <mxGeometry x="30" width="160" height="30" as="geometry" />
        </mxCell>
        <mxCell id="CFyH6eeE_y9WPXT-orT0-14" value="Products" style="shape=table;startSize=30;container=1;collapsible=1;childLayout=tableLayout;fixedRows=1;rowLines=0;fontStyle=1;align=center;resizeLast=1;flipH=1;" parent="1" vertex="1">
          <mxGeometry x="639" y="100" width="190" height="180" as="geometry" />
        </mxCell>
        <mxCell id="CFyH6eeE_y9WPXT-orT0-15" value="" style="shape=partialRectangle;collapsible=0;dropTarget=0;pointerEvents=0;fillColor=none;top=0;left=0;bottom=1;right=0;points=[[0,0.5],[1,0.5]];portConstraint=eastwest;" parent="CFyH6eeE_y9WPXT-orT0-14" vertex="1">
          <mxGeometry y="30" width="190" height="30" as="geometry" />
        </mxCell>
        <mxCell id="CFyH6eeE_y9WPXT-orT0-16" value="PK" style="shape=partialRectangle;connectable=0;fillColor=none;top=0;left=0;bottom=0;right=0;fontStyle=1;overflow=hidden;" parent="CFyH6eeE_y9WPXT-orT0-15" vertex="1">
          <mxGeometry width="30" height="30" as="geometry" />
        </mxCell>
        <mxCell id="CFyH6eeE_y9WPXT-orT0-17" value="ProductID" style="shape=partialRectangle;connectable=0;fillColor=none;top=0;left=0;bottom=0;right=0;align=left;spacingLeft=6;fontStyle=5;overflow=hidden;" parent="CFyH6eeE_y9WPXT-orT0-15" vertex="1">
          <mxGeometry x="30" width="160" height="30" as="geometry" />
        </mxCell>
        <mxCell id="CFyH6eeE_y9WPXT-orT0-18" value="" style="shape=partialRectangle;collapsible=0;dropTarget=0;pointerEvents=0;fillColor=none;top=0;left=0;bottom=0;right=0;points=[[0,0.5],[1,0.5]];portConstraint=eastwest;" parent="CFyH6eeE_y9WPXT-orT0-14" vertex="1">
          <mxGeometry y="60" width="190" height="30" as="geometry" />
        </mxCell>
        <mxCell id="CFyH6eeE_y9WPXT-orT0-19" value="" style="shape=partialRectangle;connectable=0;fillColor=none;top=0;left=0;bottom=0;right=0;editable=1;overflow=hidden;" parent="CFyH6eeE_y9WPXT-orT0-18" vertex="1">
          <mxGeometry width="30" height="30" as="geometry" />
        </mxCell>
        <mxCell id="CFyH6eeE_y9WPXT-orT0-20" value="ProductName" style="shape=partialRectangle;connectable=0;fillColor=none;top=0;left=0;bottom=0;right=0;align=left;spacingLeft=6;overflow=hidden;" parent="CFyH6eeE_y9WPXT-orT0-18" vertex="1">
          <mxGeometry x="30" width="160" height="30" as="geometry" />
        </mxCell>
        <mxCell id="JWprUIELTiPrC8QZkW9A-42" value="" style="shape=partialRectangle;collapsible=0;dropTarget=0;pointerEvents=0;fillColor=none;top=0;left=0;bottom=0;right=0;points=[[0,0.5],[1,0.5]];portConstraint=eastwest;" parent="CFyH6eeE_y9WPXT-orT0-14" vertex="1">
          <mxGeometry y="90" width="190" height="30" as="geometry" />
        </mxCell>
        <mxCell id="JWprUIELTiPrC8QZkW9A-43" value="FK" style="shape=partialRectangle;connectable=0;fillColor=none;top=0;left=0;bottom=0;right=0;editable=1;overflow=hidden;" parent="JWprUIELTiPrC8QZkW9A-42" vertex="1">
          <mxGeometry width="30" height="30" as="geometry" />
        </mxCell>
        <mxCell id="JWprUIELTiPrC8QZkW9A-44" value="CategoryID" style="shape=partialRectangle;connectable=0;fillColor=none;top=0;left=0;bottom=0;right=0;align=left;spacingLeft=6;overflow=hidden;" parent="JWprUIELTiPrC8QZkW9A-42" vertex="1">
          <mxGeometry x="30" width="160" height="30" as="geometry" />
        </mxCell>
        <mxCell id="CFyH6eeE_y9WPXT-orT0-24" value="" style="shape=partialRectangle;collapsible=0;dropTarget=0;pointerEvents=0;fillColor=none;top=0;left=0;bottom=0;right=0;points=[[0,0.5],[1,0.5]];portConstraint=eastwest;" parent="CFyH6eeE_y9WPXT-orT0-14" vertex="1">
          <mxGeometry y="120" width="190" height="30" as="geometry" />
        </mxCell>
        <mxCell id="CFyH6eeE_y9WPXT-orT0-25" value="" style="shape=partialRectangle;connectable=0;fillColor=none;top=0;left=0;bottom=0;right=0;editable=1;overflow=hidden;" parent="CFyH6eeE_y9WPXT-orT0-24" vertex="1">
          <mxGeometry width="30" height="30" as="geometry" />
        </mxCell>
        <mxCell id="CFyH6eeE_y9WPXT-orT0-26" value="IsActive" style="shape=partialRectangle;connectable=0;fillColor=none;top=0;left=0;bottom=0;right=0;align=left;spacingLeft=6;overflow=hidden;" parent="CFyH6eeE_y9WPXT-orT0-24" vertex="1">
          <mxGeometry x="30" width="160" height="30" as="geometry" />
        </mxCell>
        <mxCell id="CFyH6eeE_y9WPXT-orT0-21" value="" style="shape=partialRectangle;collapsible=0;dropTarget=0;pointerEvents=0;fillColor=none;top=0;left=0;bottom=0;right=0;points=[[0,0.5],[1,0.5]];portConstraint=eastwest;" parent="CFyH6eeE_y9WPXT-orT0-14" vertex="1">
          <mxGeometry y="150" width="190" height="30" as="geometry" />
        </mxCell>
        <mxCell id="CFyH6eeE_y9WPXT-orT0-22" value="" style="shape=partialRectangle;connectable=0;fillColor=none;top=0;left=0;bottom=0;right=0;editable=1;overflow=hidden;" parent="CFyH6eeE_y9WPXT-orT0-21" vertex="1">
          <mxGeometry width="30" height="30" as="geometry" />
        </mxCell>
        <mxCell id="CFyH6eeE_y9WPXT-orT0-23" value="Description" style="shape=partialRectangle;connectable=0;fillColor=none;top=0;left=0;bottom=0;right=0;align=left;spacingLeft=6;overflow=hidden;" parent="CFyH6eeE_y9WPXT-orT0-21" vertex="1">
          <mxGeometry x="30" width="160" height="30" as="geometry" />
        </mxCell>
        <mxCell id="JWprUIELTiPrC8QZkW9A-10" value="OrderDetails" style="shape=table;startSize=30;container=1;collapsible=1;childLayout=tableLayout;fixedRows=1;rowLines=0;fontStyle=1;align=center;resizeLast=1;" parent="1" vertex="1">
          <mxGeometry x="350" y="70" width="190" height="230" as="geometry" />
        </mxCell>
        <mxCell id="JWprUIELTiPrC8QZkW9A-11" value="" style="shape=partialRectangle;collapsible=0;dropTarget=0;pointerEvents=0;fillColor=none;top=0;left=0;bottom=0;right=0;points=[[0,0.5],[1,0.5]];portConstraint=eastwest;" parent="JWprUIELTiPrC8QZkW9A-10" vertex="1">
          <mxGeometry y="30" width="190" height="30" as="geometry" />
        </mxCell>
        <mxCell id="JWprUIELTiPrC8QZkW9A-12" value="PK,FK1" style="shape=partialRectangle;connectable=0;fillColor=none;top=0;left=0;bottom=0;right=0;fontStyle=1;overflow=hidden;" parent="JWprUIELTiPrC8QZkW9A-11" vertex="1">
          <mxGeometry width="50" height="30" as="geometry" />
        </mxCell>
        <mxCell id="JWprUIELTiPrC8QZkW9A-13" value="OrderID" style="shape=partialRectangle;connectable=0;fillColor=none;top=0;left=0;bottom=0;right=0;align=left;spacingLeft=6;fontStyle=5;overflow=hidden;" parent="JWprUIELTiPrC8QZkW9A-11" vertex="1">
          <mxGeometry x="50" width="140" height="30" as="geometry" />
        </mxCell>
        <mxCell id="JWprUIELTiPrC8QZkW9A-14" value="" style="shape=partialRectangle;collapsible=0;dropTarget=0;pointerEvents=0;fillColor=none;top=0;left=0;bottom=1;right=0;points=[[0,0.5],[1,0.5]];portConstraint=eastwest;" parent="JWprUIELTiPrC8QZkW9A-10" vertex="1">
          <mxGeometry y="60" width="190" height="30" as="geometry" />
        </mxCell>
        <mxCell id="JWprUIELTiPrC8QZkW9A-15" value="PK,FK2" style="shape=partialRectangle;connectable=0;fillColor=none;top=0;left=0;bottom=0;right=0;fontStyle=1;overflow=hidden;" parent="JWprUIELTiPrC8QZkW9A-14" vertex="1">
          <mxGeometry width="50" height="30" as="geometry" />
        </mxCell>
        <mxCell id="JWprUIELTiPrC8QZkW9A-16" value="ProductID" style="shape=partialRectangle;connectable=0;fillColor=none;top=0;left=0;bottom=0;right=0;align=left;spacingLeft=6;fontStyle=5;overflow=hidden;" parent="JWprUIELTiPrC8QZkW9A-14" vertex="1">
          <mxGeometry x="50" width="140" height="30" as="geometry" />
        </mxCell>
        <mxCell id="JWprUIELTiPrC8QZkW9A-17" value="" style="shape=partialRectangle;collapsible=0;dropTarget=0;pointerEvents=0;fillColor=none;top=0;left=0;bottom=0;right=0;points=[[0,0.5],[1,0.5]];portConstraint=eastwest;" parent="JWprUIELTiPrC8QZkW9A-10" vertex="1">
          <mxGeometry y="90" width="190" height="30" as="geometry" />
        </mxCell>
        <mxCell id="JWprUIELTiPrC8QZkW9A-18" value="" style="shape=partialRectangle;connectable=0;fillColor=none;top=0;left=0;bottom=0;right=0;editable=1;overflow=hidden;" parent="JWprUIELTiPrC8QZkW9A-17" vertex="1">
          <mxGeometry width="50" height="30" as="geometry" />
        </mxCell>
        <mxCell id="JWprUIELTiPrC8QZkW9A-19" value="UnitPrice" style="shape=partialRectangle;connectable=0;fillColor=none;top=0;left=0;bottom=0;right=0;align=left;spacingLeft=6;overflow=hidden;" parent="JWprUIELTiPrC8QZkW9A-17" vertex="1">
          <mxGeometry x="50" width="140" height="30" as="geometry" />
        </mxCell>
        <mxCell id="JWprUIELTiPrC8QZkW9A-20" value="" style="shape=partialRectangle;collapsible=0;dropTarget=0;pointerEvents=0;fillColor=none;top=0;left=0;bottom=0;right=0;points=[[0,0.5],[1,0.5]];portConstraint=eastwest;" parent="JWprUIELTiPrC8QZkW9A-10" vertex="1">
          <mxGeometry y="120" width="190" height="30" as="geometry" />
        </mxCell>
        <mxCell id="JWprUIELTiPrC8QZkW9A-21" value="" style="shape=partialRectangle;connectable=0;fillColor=none;top=0;left=0;bottom=0;right=0;editable=1;overflow=hidden;" parent="JWprUIELTiPrC8QZkW9A-20" vertex="1">
          <mxGeometry width="50" height="30" as="geometry" />
        </mxCell>
        <mxCell id="JWprUIELTiPrC8QZkW9A-22" value="Quantity" style="shape=partialRectangle;connectable=0;fillColor=none;top=0;left=0;bottom=0;right=0;align=left;spacingLeft=6;overflow=hidden;" parent="JWprUIELTiPrC8QZkW9A-20" vertex="1">
          <mxGeometry x="50" width="140" height="30" as="geometry" />
        </mxCell>
        <mxCell id="JWprUIELTiPrC8QZkW9A-23" value="" style="shape=partialRectangle;collapsible=0;dropTarget=0;pointerEvents=0;fillColor=none;top=0;left=0;bottom=0;right=0;points=[[0,0.5],[1,0.5]];portConstraint=eastwest;" parent="JWprUIELTiPrC8QZkW9A-10" vertex="1">
          <mxGeometry y="150" width="190" height="30" as="geometry" />
        </mxCell>
        <mxCell id="JWprUIELTiPrC8QZkW9A-24" value="" style="shape=partialRectangle;connectable=0;fillColor=none;top=0;left=0;bottom=0;right=0;editable=1;overflow=hidden;" parent="JWprUIELTiPrC8QZkW9A-23" vertex="1">
          <mxGeometry width="50" height="30" as="geometry" />
        </mxCell>
        <mxCell id="JWprUIELTiPrC8QZkW9A-25" value="Discount" style="shape=partialRectangle;connectable=0;fillColor=none;top=0;left=0;bottom=0;right=0;align=left;spacingLeft=6;overflow=hidden;" parent="JWprUIELTiPrC8QZkW9A-23" vertex="1">
          <mxGeometry x="50" width="140" height="30" as="geometry" />
        </mxCell>
        <mxCell id="JWprUIELTiPrC8QZkW9A-26" value="Categories" style="shape=table;startSize=30;container=1;collapsible=1;childLayout=tableLayout;fixedRows=1;rowLines=0;fontStyle=1;align=center;resizeLast=1;flipH=1;" parent="1" vertex="1">
          <mxGeometry x="910" y="100" width="190" height="150" as="geometry" />
        </mxCell>
        <mxCell id="JWprUIELTiPrC8QZkW9A-27" value="" style="shape=partialRectangle;collapsible=0;dropTarget=0;pointerEvents=0;fillColor=none;top=0;left=0;bottom=1;right=0;points=[[0,0.5],[1,0.5]];portConstraint=eastwest;" parent="JWprUIELTiPrC8QZkW9A-26" vertex="1">
          <mxGeometry y="30" width="190" height="30" as="geometry" />
        </mxCell>
        <mxCell id="JWprUIELTiPrC8QZkW9A-28" value="PK" style="shape=partialRectangle;connectable=0;fillColor=none;top=0;left=0;bottom=0;right=0;fontStyle=1;overflow=hidden;" parent="JWprUIELTiPrC8QZkW9A-27" vertex="1">
          <mxGeometry width="30" height="30" as="geometry" />
        </mxCell>
        <mxCell id="JWprUIELTiPrC8QZkW9A-29" value="CategoryID" style="shape=partialRectangle;connectable=0;fillColor=none;top=0;left=0;bottom=0;right=0;align=left;spacingLeft=6;fontStyle=5;overflow=hidden;" parent="JWprUIELTiPrC8QZkW9A-27" vertex="1">
          <mxGeometry x="30" width="160" height="30" as="geometry" />
        </mxCell>
        <mxCell id="JWprUIELTiPrC8QZkW9A-30" value="" style="shape=partialRectangle;collapsible=0;dropTarget=0;pointerEvents=0;fillColor=none;top=0;left=0;bottom=0;right=0;points=[[0,0.5],[1,0.5]];portConstraint=eastwest;" parent="JWprUIELTiPrC8QZkW9A-26" vertex="1">
          <mxGeometry y="60" width="190" height="30" as="geometry" />
        </mxCell>
        <mxCell id="JWprUIELTiPrC8QZkW9A-31" value="" style="shape=partialRectangle;connectable=0;fillColor=none;top=0;left=0;bottom=0;right=0;editable=1;overflow=hidden;" parent="JWprUIELTiPrC8QZkW9A-30" vertex="1">
          <mxGeometry width="30" height="30" as="geometry" />
        </mxCell>
        <mxCell id="JWprUIELTiPrC8QZkW9A-32" value="CategoryName" style="shape=partialRectangle;connectable=0;fillColor=none;top=0;left=0;bottom=0;right=0;align=left;spacingLeft=6;overflow=hidden;" parent="JWprUIELTiPrC8QZkW9A-30" vertex="1">
          <mxGeometry x="30" width="160" height="30" as="geometry" />
        </mxCell>
        <mxCell id="JWprUIELTiPrC8QZkW9A-33" value="" style="shape=partialRectangle;collapsible=0;dropTarget=0;pointerEvents=0;fillColor=none;top=0;left=0;bottom=0;right=0;points=[[0,0.5],[1,0.5]];portConstraint=eastwest;" parent="JWprUIELTiPrC8QZkW9A-26" vertex="1">
          <mxGeometry y="90" width="190" height="30" as="geometry" />
        </mxCell>
        <mxCell id="JWprUIELTiPrC8QZkW9A-34" value="" style="shape=partialRectangle;connectable=0;fillColor=none;top=0;left=0;bottom=0;right=0;editable=1;overflow=hidden;" parent="JWprUIELTiPrC8QZkW9A-33" vertex="1">
          <mxGeometry width="30" height="30" as="geometry" />
        </mxCell>
        <mxCell id="JWprUIELTiPrC8QZkW9A-35" value="Description" style="shape=partialRectangle;connectable=0;fillColor=none;top=0;left=0;bottom=0;right=0;align=left;spacingLeft=6;overflow=hidden;" parent="JWprUIELTiPrC8QZkW9A-33" vertex="1">
          <mxGeometry x="30" width="160" height="30" as="geometry" />
        </mxCell>
        <mxCell id="JWprUIELTiPrC8QZkW9A-36" value="" style="shape=partialRectangle;collapsible=0;dropTarget=0;pointerEvents=0;fillColor=none;top=0;left=0;bottom=0;right=0;points=[[0,0.5],[1,0.5]];portConstraint=eastwest;" parent="JWprUIELTiPrC8QZkW9A-26" vertex="1">
          <mxGeometry y="120" width="190" height="30" as="geometry" />
        </mxCell>
        <mxCell id="JWprUIELTiPrC8QZkW9A-37" value="" style="shape=partialRectangle;connectable=0;fillColor=none;top=0;left=0;bottom=0;right=0;editable=1;overflow=hidden;" parent="JWprUIELTiPrC8QZkW9A-36" vertex="1">
          <mxGeometry width="30" height="30" as="geometry" />
        </mxCell>
        <mxCell id="JWprUIELTiPrC8QZkW9A-38" value="" style="shape=partialRectangle;connectable=0;fillColor=none;top=0;left=0;bottom=0;right=0;align=left;spacingLeft=6;overflow=hidden;" parent="JWprUIELTiPrC8QZkW9A-36" vertex="1">
          <mxGeometry x="30" width="160" height="30" as="geometry" />
        </mxCell>
        <mxCell id="JWprUIELTiPrC8QZkW9A-65" value="" style="fontSize=12;html=1;endArrow=ERzeroToMany;startArrow=ERmandOne;strokeColor=#000000;entryX=1;entryY=0.5;entryDx=0;entryDy=0;endSize=10;startSize=10;endFill=1;exitX=0;exitY=0.5;exitDx=0;exitDy=0;edgeStyle=orthogonalEdgeStyle;" parent="1" source="JWprUIELTiPrC8QZkW9A-27" target="JWprUIELTiPrC8QZkW9A-42" edge="1">
          <mxGeometry width="100" height="100" relative="1" as="geometry">
            <mxPoint x="590" y="10" as="sourcePoint" />
            <mxPoint x="600" y="-20" as="targetPoint" />
          </mxGeometry>
        </mxCell>
        <mxCell id="aUuIClHJeDKS3d_8rlHw-1" value="Employee" style="shape=table;startSize=30;container=1;collapsible=1;childLayout=tableLayout;fixedRows=1;rowLines=0;fontStyle=1;align=center;resizeLast=1;flipH=1;" parent="1" vertex="1">
          <mxGeometry x="50" y="410" width="190" height="260" as="geometry">
            <mxRectangle x="40" y="40" width="90" height="30" as="alternateBounds" />
          </mxGeometry>
        </mxCell>
        <mxCell id="aUuIClHJeDKS3d_8rlHw-2" value="" style="shape=partialRectangle;collapsible=0;dropTarget=0;pointerEvents=0;fillColor=none;top=0;left=0;bottom=1;right=0;points=[[0,0.5],[1,0.5]];portConstraint=eastwest;" parent="aUuIClHJeDKS3d_8rlHw-1" vertex="1">
          <mxGeometry y="30" width="190" height="30" as="geometry" />
        </mxCell>
        <mxCell id="aUuIClHJeDKS3d_8rlHw-3" value="PK" style="shape=partialRectangle;connectable=0;fillColor=none;top=0;left=0;bottom=0;right=0;fontStyle=1;overflow=hidden;" parent="aUuIClHJeDKS3d_8rlHw-2" vertex="1">
          <mxGeometry width="30" height="30" as="geometry" />
        </mxCell>
        <mxCell id="aUuIClHJeDKS3d_8rlHw-4" value="EmployeeID" style="shape=partialRectangle;connectable=0;fillColor=none;top=0;left=0;bottom=0;right=0;align=left;spacingLeft=6;fontStyle=5;overflow=hidden;" parent="aUuIClHJeDKS3d_8rlHw-2" vertex="1">
          <mxGeometry x="30" width="160" height="30" as="geometry" />
        </mxCell>
        <mxCell id="aUuIClHJeDKS3d_8rlHw-5" value="" style="shape=partialRectangle;collapsible=0;dropTarget=0;pointerEvents=0;fillColor=none;top=0;left=0;bottom=0;right=0;points=[[0,0.5],[1,0.5]];portConstraint=eastwest;" parent="aUuIClHJeDKS3d_8rlHw-1" vertex="1">
          <mxGeometry y="60" width="190" height="30" as="geometry" />
        </mxCell>
        <mxCell id="aUuIClHJeDKS3d_8rlHw-6" value="FK" style="shape=partialRectangle;connectable=0;fillColor=none;top=0;left=0;bottom=0;right=0;editable=1;overflow=hidden;" parent="aUuIClHJeDKS3d_8rlHw-5" vertex="1">
          <mxGeometry width="30" height="30" as="geometry" />
        </mxCell>
        <mxCell id="aUuIClHJeDKS3d_8rlHw-7" value="ContactID" style="shape=partialRectangle;connectable=0;fillColor=none;top=0;left=0;bottom=0;right=0;align=left;spacingLeft=6;overflow=hidden;" parent="aUuIClHJeDKS3d_8rlHw-5" vertex="1">
          <mxGeometry x="30" width="160" height="30" as="geometry" />
        </mxCell>
        <mxCell id="aUuIClHJeDKS3d_8rlHw-17" value="" style="shape=partialRectangle;collapsible=0;dropTarget=0;pointerEvents=0;fillColor=none;top=0;left=0;bottom=0;right=0;points=[[0,0.5],[1,0.5]];portConstraint=eastwest;" parent="aUuIClHJeDKS3d_8rlHw-1" vertex="1">
          <mxGeometry y="90" width="190" height="30" as="geometry" />
        </mxCell>
        <mxCell id="aUuIClHJeDKS3d_8rlHw-18" value="FK" style="shape=partialRectangle;connectable=0;fillColor=none;top=0;left=0;bottom=0;right=0;editable=1;overflow=hidden;" parent="aUuIClHJeDKS3d_8rlHw-17" vertex="1">
          <mxGeometry width="30" height="30" as="geometry" />
        </mxCell>
        <mxCell id="aUuIClHJeDKS3d_8rlHw-19" value="AddressID" style="shape=partialRectangle;connectable=0;fillColor=none;top=0;left=0;bottom=0;right=0;align=left;spacingLeft=6;overflow=hidden;" parent="aUuIClHJeDKS3d_8rlHw-17" vertex="1">
          <mxGeometry x="30" width="160" height="30" as="geometry" />
        </mxCell>
        <mxCell id="2IE5AS93_SuTDEM4m2bp-35" value="" style="shape=partialRectangle;collapsible=0;dropTarget=0;pointerEvents=0;fillColor=none;top=0;left=0;bottom=0;right=0;points=[[0,0.5],[1,0.5]];portConstraint=eastwest;" parent="aUuIClHJeDKS3d_8rlHw-1" vertex="1">
          <mxGeometry y="120" width="190" height="30" as="geometry" />
        </mxCell>
        <mxCell id="2IE5AS93_SuTDEM4m2bp-36" value="FK" style="shape=partialRectangle;connectable=0;fillColor=none;top=0;left=0;bottom=0;right=0;editable=1;overflow=hidden;" parent="2IE5AS93_SuTDEM4m2bp-35" vertex="1">
          <mxGeometry width="30" height="30" as="geometry" />
        </mxCell>
        <mxCell id="2IE5AS93_SuTDEM4m2bp-37" value="ManagerID" style="shape=partialRectangle;connectable=0;fillColor=none;top=0;left=0;bottom=0;right=0;align=left;spacingLeft=6;overflow=hidden;" parent="2IE5AS93_SuTDEM4m2bp-35" vertex="1">
          <mxGeometry x="30" width="160" height="30" as="geometry" />
        </mxCell>
        <mxCell id="2IE5AS93_SuTDEM4m2bp-26" value="" style="shape=partialRectangle;collapsible=0;dropTarget=0;pointerEvents=0;fillColor=none;top=0;left=0;bottom=0;right=0;points=[[0,0.5],[1,0.5]];portConstraint=eastwest;" parent="aUuIClHJeDKS3d_8rlHw-1" vertex="1">
          <mxGeometry y="150" width="190" height="30" as="geometry" />
        </mxCell>
        <mxCell id="2IE5AS93_SuTDEM4m2bp-27" value="" style="shape=partialRectangle;connectable=0;fillColor=none;top=0;left=0;bottom=0;right=0;editable=1;overflow=hidden;" parent="2IE5AS93_SuTDEM4m2bp-26" vertex="1">
          <mxGeometry width="30" height="30" as="geometry" />
        </mxCell>
        <mxCell id="2IE5AS93_SuTDEM4m2bp-28" value="RoleTitle" style="shape=partialRectangle;connectable=0;fillColor=none;top=0;left=0;bottom=0;right=0;align=left;spacingLeft=6;overflow=hidden;" parent="2IE5AS93_SuTDEM4m2bp-26" vertex="1">
          <mxGeometry x="30" width="160" height="30" as="geometry" />
        </mxCell>
        <mxCell id="2IE5AS93_SuTDEM4m2bp-23" value="" style="shape=partialRectangle;collapsible=0;dropTarget=0;pointerEvents=0;fillColor=none;top=0;left=0;bottom=0;right=0;points=[[0,0.5],[1,0.5]];portConstraint=eastwest;" parent="aUuIClHJeDKS3d_8rlHw-1" vertex="1">
          <mxGeometry y="180" width="190" height="30" as="geometry" />
        </mxCell>
        <mxCell id="2IE5AS93_SuTDEM4m2bp-24" value="" style="shape=partialRectangle;connectable=0;fillColor=none;top=0;left=0;bottom=0;right=0;editable=1;overflow=hidden;" parent="2IE5AS93_SuTDEM4m2bp-23" vertex="1">
          <mxGeometry width="30" height="30" as="geometry" />
        </mxCell>
        <mxCell id="2IE5AS93_SuTDEM4m2bp-25" value="HireDate" style="shape=partialRectangle;connectable=0;fillColor=none;top=0;left=0;bottom=0;right=0;align=left;spacingLeft=6;overflow=hidden;" parent="2IE5AS93_SuTDEM4m2bp-23" vertex="1">
          <mxGeometry x="30" width="160" height="30" as="geometry" />
        </mxCell>
        <mxCell id="2IE5AS93_SuTDEM4m2bp-32" value="" style="shape=partialRectangle;collapsible=0;dropTarget=0;pointerEvents=0;fillColor=none;top=0;left=0;bottom=0;right=0;points=[[0,0.5],[1,0.5]];portConstraint=eastwest;" parent="aUuIClHJeDKS3d_8rlHw-1" vertex="1">
          <mxGeometry y="210" width="190" height="30" as="geometry" />
        </mxCell>
        <mxCell id="2IE5AS93_SuTDEM4m2bp-33" value="" style="shape=partialRectangle;connectable=0;fillColor=none;top=0;left=0;bottom=0;right=0;editable=1;overflow=hidden;" parent="2IE5AS93_SuTDEM4m2bp-32" vertex="1">
          <mxGeometry width="30" height="30" as="geometry" />
        </mxCell>
        <mxCell id="2IE5AS93_SuTDEM4m2bp-34" value="IsActive" style="shape=partialRectangle;connectable=0;fillColor=none;top=0;left=0;bottom=0;right=0;align=left;spacingLeft=6;overflow=hidden;" parent="2IE5AS93_SuTDEM4m2bp-32" vertex="1">
          <mxGeometry x="30" width="160" height="30" as="geometry" />
        </mxCell>
        <mxCell id="2IE5AS93_SuTDEM4m2bp-39" value="" style="fontSize=12;html=1;endArrow=ERzeroToMany;startArrow=ERzeroToOne;strokeColor=#000000;entryX=0;entryY=0.5;entryDx=0;entryDy=0;exitX=0;exitY=0.5;exitDx=0;exitDy=0;endSize=10;startSize=10;edgeStyle=orthogonalEdgeStyle;" parent="aUuIClHJeDKS3d_8rlHw-1" source="aUuIClHJeDKS3d_8rlHw-2" target="2IE5AS93_SuTDEM4m2bp-35" edge="1">
          <mxGeometry width="100" height="100" relative="1" as="geometry">
            <mxPoint x="260" y="410" as="sourcePoint" />
            <mxPoint x="360" y="310" as="targetPoint" />
            <Array as="points">
              <mxPoint x="-40" y="45" />
              <mxPoint x="-40" y="135" />
            </Array>
          </mxGeometry>
        </mxCell>
        <mxCell id="aUuIClHJeDKS3d_8rlHw-32" value="" style="fontSize=12;html=1;endArrow=ERzeroToMany;startArrow=ERmandOne;strokeColor=#000000;entryX=0;entryY=0.5;entryDx=0;entryDy=0;endSize=10;startSize=10;endFill=1;exitX=1;exitY=0.5;exitDx=0;exitDy=0;edgeStyle=orthogonalEdgeStyle;" parent="1" source="Mm3gTE9nhFV8aDJE3xkG-154" target="CFyH6eeE_y9WPXT-orT0-5" edge="1">
          <mxGeometry width="100" height="100" relative="1" as="geometry">
            <mxPoint x="250" y="70" as="sourcePoint" />
            <mxPoint x="349.94" y="320" as="targetPoint" />
            <Array as="points">
              <mxPoint x="290" y="195" />
              <mxPoint x="290" y="425" />
            </Array>
          </mxGeometry>
        </mxCell>
        <mxCell id="aUuIClHJeDKS3d_8rlHw-34" value="" style="fontSize=12;html=1;endArrow=ERmandOne;startArrow=ERzeroToMany;strokeColor=#000000;entryX=0;entryY=0.5;entryDx=0;entryDy=0;exitX=1;exitY=0.5;exitDx=0;exitDy=0;endSize=10;startSize=10;edgeStyle=orthogonalEdgeStyle;endFill=0;" parent="1" source="JWprUIELTiPrC8QZkW9A-14" target="CFyH6eeE_y9WPXT-orT0-15" edge="1">
          <mxGeometry width="100" height="100" relative="1" as="geometry">
            <mxPoint x="640" y="570" as="sourcePoint" />
            <mxPoint x="740" y="470" as="targetPoint" />
          </mxGeometry>
        </mxCell>
        <mxCell id="aUuIClHJeDKS3d_8rlHw-35" value="" style="fontSize=12;html=1;endArrow=ERoneToMany;startArrow=ERmandOne;strokeColor=#000000;endSize=10;startSize=10;entryX=0;entryY=0.5;entryDx=0;entryDy=0;edgeStyle=orthogonalEdgeStyle;exitX=0;exitY=0.5;exitDx=0;exitDy=0;" parent="1" source="CFyH6eeE_y9WPXT-orT0-2" target="JWprUIELTiPrC8QZkW9A-11" edge="1">
          <mxGeometry width="100" height="100" relative="1" as="geometry">
            <mxPoint x="360" y="350" as="sourcePoint" />
            <mxPoint x="340" y="670" as="targetPoint" />
            <Array as="points">
              <mxPoint x="330" y="395" />
              <mxPoint x="330" y="115" />
            </Array>
          </mxGeometry>
        </mxCell>
        <mxCell id="2IE5AS93_SuTDEM4m2bp-4" value="" style="fontSize=12;html=1;endArrow=ERzeroToMany;startArrow=ERmandOne;strokeColor=#000000;entryX=0;entryY=0.5;entryDx=0;entryDy=0;endSize=10;startSize=10;endFill=1;exitX=1;exitY=0.5;exitDx=0;exitDy=0;" parent="1" source="aUuIClHJeDKS3d_8rlHw-2" target="2IE5AS93_SuTDEM4m2bp-1" edge="1">
          <mxGeometry width="100" height="100" relative="1" as="geometry">
            <mxPoint x="250" y="165" as="sourcePoint" />
            <mxPoint x="390" y="195" as="targetPoint" />
          </mxGeometry>
        </mxCell>
        <mxCell id="s6hBAK8OQXfYepTeVuqL-23" value="" style="fontSize=12;html=1;endArrow=ERzeroToMany;startArrow=ERmandOne;strokeColor=#000000;endSize=10;startSize=10;endFill=1;exitX=0;exitY=0.5;exitDx=0;exitDy=0;entryX=0;entryY=0.5;entryDx=0;entryDy=0;edgeStyle=orthogonalEdgeStyle;" edge="1" parent="1" source="CFyH6eeE_y9WPXT-orT0-15" target="W6LdPqOV1DomKu5oZFma-2">
          <mxGeometry width="100" height="100" relative="1" as="geometry">
            <mxPoint x="870" y="440" as="sourcePoint" />
            <mxPoint x="610" y="630" as="targetPoint" />
            <Array as="points">
              <mxPoint x="590" y="145" />
              <mxPoint x="590" y="415" />
            </Array>
          </mxGeometry>
        </mxCell>
        <mxCell id="SdtT5ybkrVDSRGNApIkS-1" value="Version" style="shape=table;startSize=30;container=1;collapsible=1;childLayout=tableLayout;fixedRows=1;rowLines=0;fontStyle=1;align=center;resizeLast=1;" vertex="1" parent="1">
          <mxGeometry x="634" y="670" width="190" height="250" as="geometry" />
        </mxCell>
        <mxCell id="SdtT5ybkrVDSRGNApIkS-2" value="" style="shape=partialRectangle;collapsible=0;dropTarget=0;pointerEvents=0;fillColor=none;top=0;left=0;bottom=1;right=0;points=[[0,0.5],[1,0.5]];portConstraint=eastwest;" vertex="1" parent="SdtT5ybkrVDSRGNApIkS-1">
          <mxGeometry y="30" width="190" height="30" as="geometry" />
        </mxCell>
        <mxCell id="SdtT5ybkrVDSRGNApIkS-3" value="PK" style="shape=partialRectangle;connectable=0;fillColor=none;top=0;left=0;bottom=0;right=0;fontStyle=1;overflow=hidden;" vertex="1" parent="SdtT5ybkrVDSRGNApIkS-2">
          <mxGeometry width="30" height="30" as="geometry" />
        </mxCell>
        <mxCell id="SdtT5ybkrVDSRGNApIkS-4" value="VersionID" style="shape=partialRectangle;connectable=0;fillColor=none;top=0;left=0;bottom=0;right=0;align=left;spacingLeft=6;fontStyle=5;overflow=hidden;" vertex="1" parent="SdtT5ybkrVDSRGNApIkS-2">
          <mxGeometry x="30" width="160" height="30" as="geometry" />
        </mxCell>
        <mxCell id="Dsom1omeqRga9T4WdXha-13" value="" style="shape=partialRectangle;collapsible=0;dropTarget=0;pointerEvents=0;fillColor=none;top=0;left=0;bottom=0;right=0;points=[[0,0.5],[1,0.5]];portConstraint=eastwest;" vertex="1" parent="SdtT5ybkrVDSRGNApIkS-1">
          <mxGeometry y="60" width="190" height="30" as="geometry" />
        </mxCell>
        <mxCell id="Dsom1omeqRga9T4WdXha-14" value="" style="shape=partialRectangle;connectable=0;fillColor=none;top=0;left=0;bottom=0;right=0;editable=1;overflow=hidden;" vertex="1" parent="Dsom1omeqRga9T4WdXha-13">
          <mxGeometry width="30" height="30" as="geometry" />
        </mxCell>
        <mxCell id="Dsom1omeqRga9T4WdXha-15" value="Version" style="shape=partialRectangle;connectable=0;fillColor=none;top=0;left=0;bottom=0;right=0;align=left;spacingLeft=6;overflow=hidden;" vertex="1" parent="Dsom1omeqRga9T4WdXha-13">
          <mxGeometry x="30" width="160" height="30" as="geometry" />
        </mxCell>
        <mxCell id="SdtT5ybkrVDSRGNApIkS-5" value="" style="shape=partialRectangle;collapsible=0;dropTarget=0;pointerEvents=0;fillColor=none;top=0;left=0;bottom=0;right=0;points=[[0,0.5],[1,0.5]];portConstraint=eastwest;" vertex="1" parent="SdtT5ybkrVDSRGNApIkS-1">
          <mxGeometry y="90" width="190" height="30" as="geometry" />
        </mxCell>
        <mxCell id="SdtT5ybkrVDSRGNApIkS-6" value="FK" style="shape=partialRectangle;connectable=0;fillColor=none;top=0;left=0;bottom=0;right=0;editable=1;overflow=hidden;" vertex="1" parent="SdtT5ybkrVDSRGNApIkS-5">
          <mxGeometry width="30" height="30" as="geometry" />
        </mxCell>
        <mxCell id="SdtT5ybkrVDSRGNApIkS-7" value="VersionTypeID" style="shape=partialRectangle;connectable=0;fillColor=none;top=0;left=0;bottom=0;right=0;align=left;spacingLeft=6;overflow=hidden;" vertex="1" parent="SdtT5ybkrVDSRGNApIkS-5">
          <mxGeometry x="30" width="160" height="30" as="geometry" />
        </mxCell>
        <mxCell id="SdtT5ybkrVDSRGNApIkS-11" value="" style="shape=partialRectangle;collapsible=0;dropTarget=0;pointerEvents=0;fillColor=none;top=0;left=0;bottom=0;right=0;points=[[0,0.5],[1,0.5]];portConstraint=eastwest;" vertex="1" parent="SdtT5ybkrVDSRGNApIkS-1">
          <mxGeometry y="120" width="190" height="30" as="geometry" />
        </mxCell>
        <mxCell id="SdtT5ybkrVDSRGNApIkS-12" value="FK" style="shape=partialRectangle;connectable=0;fillColor=none;top=0;left=0;bottom=0;right=0;editable=1;overflow=hidden;" vertex="1" parent="SdtT5ybkrVDSRGNApIkS-11">
          <mxGeometry width="30" height="30" as="geometry" />
        </mxCell>
        <mxCell id="SdtT5ybkrVDSRGNApIkS-13" value="OperationRunID" style="shape=partialRectangle;connectable=0;fillColor=none;top=0;left=0;bottom=0;right=0;align=left;spacingLeft=6;overflow=hidden;" vertex="1" parent="SdtT5ybkrVDSRGNApIkS-11">
          <mxGeometry x="30" width="160" height="30" as="geometry" />
        </mxCell>
        <mxCell id="SdtT5ybkrVDSRGNApIkS-8" value="" style="shape=partialRectangle;collapsible=0;dropTarget=0;pointerEvents=0;fillColor=none;top=0;left=0;bottom=0;right=0;points=[[0,0.5],[1,0.5]];portConstraint=eastwest;" vertex="1" parent="SdtT5ybkrVDSRGNApIkS-1">
          <mxGeometry y="150" width="190" height="30" as="geometry" />
        </mxCell>
        <mxCell id="SdtT5ybkrVDSRGNApIkS-9" value="" style="shape=partialRectangle;connectable=0;fillColor=none;top=0;left=0;bottom=0;right=0;editable=1;overflow=hidden;" vertex="1" parent="SdtT5ybkrVDSRGNApIkS-8">
          <mxGeometry width="30" height="30" as="geometry" />
        </mxCell>
        <mxCell id="SdtT5ybkrVDSRGNApIkS-10" value="Description" style="shape=partialRectangle;connectable=0;fillColor=none;top=0;left=0;bottom=0;right=0;align=left;spacingLeft=6;overflow=hidden;" vertex="1" parent="SdtT5ybkrVDSRGNApIkS-8">
          <mxGeometry x="30" width="160" height="30" as="geometry" />
        </mxCell>
        <mxCell id="Dsom1omeqRga9T4WdXha-1" value="" style="shape=partialRectangle;collapsible=0;dropTarget=0;pointerEvents=0;fillColor=none;top=0;left=0;bottom=0;right=0;points=[[0,0.5],[1,0.5]];portConstraint=eastwest;" vertex="1" parent="SdtT5ybkrVDSRGNApIkS-1">
          <mxGeometry y="180" width="190" height="30" as="geometry" />
        </mxCell>
        <mxCell id="Dsom1omeqRga9T4WdXha-2" value="" style="shape=partialRectangle;connectable=0;fillColor=none;top=0;left=0;bottom=0;right=0;editable=1;overflow=hidden;" vertex="1" parent="Dsom1omeqRga9T4WdXha-1">
          <mxGeometry width="30" height="30" as="geometry" />
        </mxCell>
        <mxCell id="Dsom1omeqRga9T4WdXha-3" value="StartDate" style="shape=partialRectangle;connectable=0;fillColor=none;top=0;left=0;bottom=0;right=0;align=left;spacingLeft=6;overflow=hidden;" vertex="1" parent="Dsom1omeqRga9T4WdXha-1">
          <mxGeometry x="30" width="160" height="30" as="geometry" />
        </mxCell>
        <mxCell id="Dsom1omeqRga9T4WdXha-4" value="" style="shape=partialRectangle;collapsible=0;dropTarget=0;pointerEvents=0;fillColor=none;top=0;left=0;bottom=0;right=0;points=[[0,0.5],[1,0.5]];portConstraint=eastwest;" vertex="1" parent="SdtT5ybkrVDSRGNApIkS-1">
          <mxGeometry y="210" width="190" height="30" as="geometry" />
        </mxCell>
        <mxCell id="Dsom1omeqRga9T4WdXha-5" value="" style="shape=partialRectangle;connectable=0;fillColor=none;top=0;left=0;bottom=0;right=0;editable=1;overflow=hidden;" vertex="1" parent="Dsom1omeqRga9T4WdXha-4">
          <mxGeometry width="30" height="30" as="geometry" />
        </mxCell>
        <mxCell id="Dsom1omeqRga9T4WdXha-6" value="EndDate" style="shape=partialRectangle;connectable=0;fillColor=none;top=0;left=0;bottom=0;right=0;align=left;spacingLeft=6;overflow=hidden;" vertex="1" parent="Dsom1omeqRga9T4WdXha-4">
          <mxGeometry x="30" width="160" height="30" as="geometry" />
        </mxCell>
        <mxCell id="SdtT5ybkrVDSRGNApIkS-14" value="VersionType" style="shape=table;startSize=30;container=1;collapsible=1;childLayout=tableLayout;fixedRows=1;rowLines=0;fontStyle=1;align=center;resizeLast=1;" vertex="1" parent="1">
          <mxGeometry x="920" y="660" width="180" height="160" as="geometry" />
        </mxCell>
        <mxCell id="SdtT5ybkrVDSRGNApIkS-15" value="" style="shape=partialRectangle;collapsible=0;dropTarget=0;pointerEvents=0;fillColor=none;top=0;left=0;bottom=1;right=0;points=[[0,0.5],[1,0.5]];portConstraint=eastwest;" vertex="1" parent="SdtT5ybkrVDSRGNApIkS-14">
          <mxGeometry y="30" width="180" height="30" as="geometry" />
        </mxCell>
        <mxCell id="SdtT5ybkrVDSRGNApIkS-16" value="PK" style="shape=partialRectangle;connectable=0;fillColor=none;top=0;left=0;bottom=0;right=0;fontStyle=1;overflow=hidden;" vertex="1" parent="SdtT5ybkrVDSRGNApIkS-15">
          <mxGeometry width="30" height="30" as="geometry" />
        </mxCell>
        <mxCell id="SdtT5ybkrVDSRGNApIkS-17" value="VersionTypeID" style="shape=partialRectangle;connectable=0;fillColor=none;top=0;left=0;bottom=0;right=0;align=left;spacingLeft=6;fontStyle=5;overflow=hidden;" vertex="1" parent="SdtT5ybkrVDSRGNApIkS-15">
          <mxGeometry x="30" width="150" height="30" as="geometry" />
        </mxCell>
        <mxCell id="SdtT5ybkrVDSRGNApIkS-18" value="" style="shape=partialRectangle;collapsible=0;dropTarget=0;pointerEvents=0;fillColor=none;top=0;left=0;bottom=0;right=0;points=[[0,0.5],[1,0.5]];portConstraint=eastwest;" vertex="1" parent="SdtT5ybkrVDSRGNApIkS-14">
          <mxGeometry y="60" width="180" height="30" as="geometry" />
        </mxCell>
        <mxCell id="SdtT5ybkrVDSRGNApIkS-19" value="" style="shape=partialRectangle;connectable=0;fillColor=none;top=0;left=0;bottom=0;right=0;editable=1;overflow=hidden;" vertex="1" parent="SdtT5ybkrVDSRGNApIkS-18">
          <mxGeometry width="30" height="30" as="geometry" />
        </mxCell>
        <mxCell id="SdtT5ybkrVDSRGNApIkS-20" value="VersionTypeName" style="shape=partialRectangle;connectable=0;fillColor=none;top=0;left=0;bottom=0;right=0;align=left;spacingLeft=6;overflow=hidden;" vertex="1" parent="SdtT5ybkrVDSRGNApIkS-18">
          <mxGeometry x="30" width="150" height="30" as="geometry" />
        </mxCell>
        <mxCell id="SdtT5ybkrVDSRGNApIkS-21" value="" style="shape=partialRectangle;collapsible=0;dropTarget=0;pointerEvents=0;fillColor=none;top=0;left=0;bottom=0;right=0;points=[[0,0.5],[1,0.5]];portConstraint=eastwest;" vertex="1" parent="SdtT5ybkrVDSRGNApIkS-14">
          <mxGeometry y="90" width="180" height="30" as="geometry" />
        </mxCell>
        <mxCell id="SdtT5ybkrVDSRGNApIkS-22" value="" style="shape=partialRectangle;connectable=0;fillColor=none;top=0;left=0;bottom=0;right=0;editable=1;overflow=hidden;" vertex="1" parent="SdtT5ybkrVDSRGNApIkS-21">
          <mxGeometry width="30" height="30" as="geometry" />
        </mxCell>
        <mxCell id="SdtT5ybkrVDSRGNApIkS-23" value="Description" style="shape=partialRectangle;connectable=0;fillColor=none;top=0;left=0;bottom=0;right=0;align=left;spacingLeft=6;overflow=hidden;" vertex="1" parent="SdtT5ybkrVDSRGNApIkS-21">
          <mxGeometry x="30" width="150" height="30" as="geometry" />
        </mxCell>
        <mxCell id="SdtT5ybkrVDSRGNApIkS-24" value="" style="shape=partialRectangle;collapsible=0;dropTarget=0;pointerEvents=0;fillColor=none;top=0;left=0;bottom=0;right=0;points=[[0,0.5],[1,0.5]];portConstraint=eastwest;" vertex="1" parent="SdtT5ybkrVDSRGNApIkS-14">
          <mxGeometry y="120" width="180" height="30" as="geometry" />
        </mxCell>
        <mxCell id="SdtT5ybkrVDSRGNApIkS-25" value="" style="shape=partialRectangle;connectable=0;fillColor=none;top=0;left=0;bottom=0;right=0;editable=1;overflow=hidden;" vertex="1" parent="SdtT5ybkrVDSRGNApIkS-24">
          <mxGeometry width="30" height="30" as="geometry" />
        </mxCell>
        <mxCell id="SdtT5ybkrVDSRGNApIkS-26" value="" style="shape=partialRectangle;connectable=0;fillColor=none;top=0;left=0;bottom=0;right=0;align=left;spacingLeft=6;overflow=hidden;" vertex="1" parent="SdtT5ybkrVDSRGNApIkS-24">
          <mxGeometry x="30" width="150" height="30" as="geometry" />
        </mxCell>
        <mxCell id="W6LdPqOV1DomKu5oZFma-1" value="Warehouse" style="shape=table;startSize=30;container=1;collapsible=1;childLayout=tableLayout;fixedRows=1;rowLines=0;fontStyle=1;align=center;resizeLast=1;" vertex="1" parent="1">
          <mxGeometry x="639" y="340" width="180" height="280" as="geometry" />
        </mxCell>
        <mxCell id="W6LdPqOV1DomKu5oZFma-5" value="" style="shape=partialRectangle;collapsible=0;dropTarget=0;pointerEvents=0;fillColor=none;top=0;left=0;bottom=1;right=0;points=[[0,0.5],[1,0.5]];portConstraint=eastwest;" vertex="1" parent="W6LdPqOV1DomKu5oZFma-1">
          <mxGeometry y="30" width="180" height="30" as="geometry" />
        </mxCell>
        <mxCell id="W6LdPqOV1DomKu5oZFma-6" value="PK" style="shape=partialRectangle;connectable=0;fillColor=none;top=0;left=0;bottom=0;right=0;fontStyle=1;overflow=hidden;" vertex="1" parent="W6LdPqOV1DomKu5oZFma-5">
          <mxGeometry width="60" height="30" as="geometry" />
        </mxCell>
        <mxCell id="W6LdPqOV1DomKu5oZFma-7" value="WarehouseID" style="shape=partialRectangle;connectable=0;fillColor=none;top=0;left=0;bottom=0;right=0;align=left;spacingLeft=6;fontStyle=5;overflow=hidden;" vertex="1" parent="W6LdPqOV1DomKu5oZFma-5">
          <mxGeometry x="60" width="120" height="30" as="geometry" />
        </mxCell>
        <mxCell id="W6LdPqOV1DomKu5oZFma-2" value="" style="shape=partialRectangle;collapsible=0;dropTarget=0;pointerEvents=0;fillColor=none;top=0;left=0;bottom=0;right=0;points=[[0,0.5],[1,0.5]];portConstraint=eastwest;" vertex="1" parent="W6LdPqOV1DomKu5oZFma-1">
          <mxGeometry y="60" width="180" height="30" as="geometry" />
        </mxCell>
        <mxCell id="W6LdPqOV1DomKu5oZFma-3" value="FK" style="shape=partialRectangle;connectable=0;fillColor=none;top=0;left=0;bottom=0;right=0;fontStyle=1;overflow=hidden;" vertex="1" parent="W6LdPqOV1DomKu5oZFma-2">
          <mxGeometry width="60" height="30" as="geometry" />
        </mxCell>
        <mxCell id="W6LdPqOV1DomKu5oZFma-4" value="ProductID" style="shape=partialRectangle;connectable=0;fillColor=none;top=0;left=0;bottom=0;right=0;align=left;spacingLeft=6;fontStyle=4;overflow=hidden;" vertex="1" parent="W6LdPqOV1DomKu5oZFma-2">
          <mxGeometry x="60" width="120" height="30" as="geometry" />
        </mxCell>
        <mxCell id="Dsom1omeqRga9T4WdXha-10" value="" style="shape=partialRectangle;collapsible=0;dropTarget=0;pointerEvents=0;fillColor=none;top=0;left=0;bottom=0;right=0;points=[[0,0.5],[1,0.5]];portConstraint=eastwest;" vertex="1" parent="W6LdPqOV1DomKu5oZFma-1">
          <mxGeometry y="90" width="180" height="30" as="geometry" />
        </mxCell>
        <mxCell id="Dsom1omeqRga9T4WdXha-11" value="FK" style="shape=partialRectangle;connectable=0;fillColor=none;top=0;left=0;bottom=0;right=0;editable=1;overflow=hidden;" vertex="1" parent="Dsom1omeqRga9T4WdXha-10">
          <mxGeometry width="60" height="30" as="geometry" />
        </mxCell>
        <mxCell id="Dsom1omeqRga9T4WdXha-12" value="Version" style="shape=partialRectangle;connectable=0;fillColor=none;top=0;left=0;bottom=0;right=0;align=left;spacingLeft=6;overflow=hidden;" vertex="1" parent="Dsom1omeqRga9T4WdXha-10">
          <mxGeometry x="60" width="120" height="30" as="geometry" />
        </mxCell>
        <mxCell id="W6LdPqOV1DomKu5oZFma-8" value="" style="shape=partialRectangle;collapsible=0;dropTarget=0;pointerEvents=0;fillColor=none;top=0;left=0;bottom=0;right=0;points=[[0,0.5],[1,0.5]];portConstraint=eastwest;" vertex="1" parent="W6LdPqOV1DomKu5oZFma-1">
          <mxGeometry y="120" width="180" height="30" as="geometry" />
        </mxCell>
        <mxCell id="W6LdPqOV1DomKu5oZFma-9" value="" style="shape=partialRectangle;connectable=0;fillColor=none;top=0;left=0;bottom=0;right=0;editable=1;overflow=hidden;" vertex="1" parent="W6LdPqOV1DomKu5oZFma-8">
          <mxGeometry width="60" height="30" as="geometry" />
        </mxCell>
        <mxCell id="W6LdPqOV1DomKu5oZFma-10" value="UnitPrice" style="shape=partialRectangle;connectable=0;fillColor=none;top=0;left=0;bottom=0;right=0;align=left;spacingLeft=6;overflow=hidden;" vertex="1" parent="W6LdPqOV1DomKu5oZFma-8">
          <mxGeometry x="60" width="120" height="30" as="geometry" />
        </mxCell>
        <mxCell id="W6LdPqOV1DomKu5oZFma-11" value="" style="shape=partialRectangle;collapsible=0;dropTarget=0;pointerEvents=0;fillColor=none;top=0;left=0;bottom=0;right=0;points=[[0,0.5],[1,0.5]];portConstraint=eastwest;" vertex="1" parent="W6LdPqOV1DomKu5oZFma-1">
          <mxGeometry y="150" width="180" height="30" as="geometry" />
        </mxCell>
        <mxCell id="W6LdPqOV1DomKu5oZFma-12" value="" style="shape=partialRectangle;connectable=0;fillColor=none;top=0;left=0;bottom=0;right=0;editable=1;overflow=hidden;" vertex="1" parent="W6LdPqOV1DomKu5oZFma-11">
          <mxGeometry width="60" height="30" as="geometry" />
        </mxCell>
        <mxCell id="W6LdPqOV1DomKu5oZFma-13" value="Quantity" style="shape=partialRectangle;connectable=0;fillColor=none;top=0;left=0;bottom=0;right=0;align=left;spacingLeft=6;overflow=hidden;" vertex="1" parent="W6LdPqOV1DomKu5oZFma-11">
          <mxGeometry x="60" width="120" height="30" as="geometry" />
        </mxCell>
        <mxCell id="W6LdPqOV1DomKu5oZFma-14" value="" style="shape=partialRectangle;collapsible=0;dropTarget=0;pointerEvents=0;fillColor=none;top=0;left=0;bottom=0;right=0;points=[[0,0.5],[1,0.5]];portConstraint=eastwest;" vertex="1" parent="W6LdPqOV1DomKu5oZFma-1">
          <mxGeometry y="180" width="180" height="30" as="geometry" />
        </mxCell>
        <mxCell id="W6LdPqOV1DomKu5oZFma-15" value="" style="shape=partialRectangle;connectable=0;fillColor=none;top=0;left=0;bottom=0;right=0;editable=1;overflow=hidden;" vertex="1" parent="W6LdPqOV1DomKu5oZFma-14">
          <mxGeometry width="60" height="30" as="geometry" />
        </mxCell>
        <mxCell id="W6LdPqOV1DomKu5oZFma-16" value="Description" style="shape=partialRectangle;connectable=0;fillColor=none;top=0;left=0;bottom=0;right=0;align=left;spacingLeft=6;overflow=hidden;" vertex="1" parent="W6LdPqOV1DomKu5oZFma-14">
          <mxGeometry x="60" width="120" height="30" as="geometry" />
        </mxCell>
        <mxCell id="W6LdPqOV1DomKu5oZFma-17" value="" style="shape=partialRectangle;collapsible=0;dropTarget=0;pointerEvents=0;fillColor=none;top=0;left=0;bottom=0;right=0;points=[[0,0.5],[1,0.5]];portConstraint=eastwest;" vertex="1" parent="W6LdPqOV1DomKu5oZFma-1">
          <mxGeometry y="210" width="180" height="30" as="geometry" />
        </mxCell>
        <mxCell id="W6LdPqOV1DomKu5oZFma-18" value="" style="shape=partialRectangle;connectable=0;fillColor=none;top=0;left=0;bottom=0;right=0;editable=1;overflow=hidden;" vertex="1" parent="W6LdPqOV1DomKu5oZFma-17">
          <mxGeometry width="60" height="30" as="geometry" />
        </mxCell>
        <mxCell id="W6LdPqOV1DomKu5oZFma-19" value="StartVersion" style="shape=partialRectangle;connectable=0;fillColor=none;top=0;left=0;bottom=0;right=0;align=left;spacingLeft=6;overflow=hidden;" vertex="1" parent="W6LdPqOV1DomKu5oZFma-17">
          <mxGeometry x="60" width="120" height="30" as="geometry" />
        </mxCell>
        <mxCell id="W6LdPqOV1DomKu5oZFma-20" value="" style="shape=partialRectangle;collapsible=0;dropTarget=0;pointerEvents=0;fillColor=none;top=0;left=0;bottom=0;right=0;points=[[0,0.5],[1,0.5]];portConstraint=eastwest;" vertex="1" parent="W6LdPqOV1DomKu5oZFma-1">
          <mxGeometry y="240" width="180" height="30" as="geometry" />
        </mxCell>
        <mxCell id="W6LdPqOV1DomKu5oZFma-21" value="" style="shape=partialRectangle;connectable=0;fillColor=none;top=0;left=0;bottom=0;right=0;editable=1;overflow=hidden;" vertex="1" parent="W6LdPqOV1DomKu5oZFma-20">
          <mxGeometry width="60" height="30" as="geometry" />
        </mxCell>
        <mxCell id="W6LdPqOV1DomKu5oZFma-22" value="EndVersion" style="shape=partialRectangle;connectable=0;fillColor=none;top=0;left=0;bottom=0;right=0;align=left;spacingLeft=6;overflow=hidden;" vertex="1" parent="W6LdPqOV1DomKu5oZFma-20">
          <mxGeometry x="60" width="120" height="30" as="geometry" />
        </mxCell>
        <mxCell id="W6LdPqOV1DomKu5oZFma-24" value="" style="fontSize=12;html=1;endArrow=ERzeroToMany;startArrow=ERmandOne;strokeColor=#000000;endSize=10;startSize=10;endFill=1;exitX=0;exitY=0.5;exitDx=0;exitDy=0;entryX=0;entryY=0.5;entryDx=0;entryDy=0;edgeStyle=orthogonalEdgeStyle;" edge="1" parent="1" source="Dsom1omeqRga9T4WdXha-13" target="W6LdPqOV1DomKu5oZFma-17">
          <mxGeometry width="100" height="100" relative="1" as="geometry">
            <mxPoint x="624" y="420" as="sourcePoint" />
            <mxPoint x="610" y="680" as="targetPoint" />
            <Array as="points">
              <mxPoint x="590" y="745" />
              <mxPoint x="590" y="565" />
            </Array>
          </mxGeometry>
        </mxCell>
        <mxCell id="W6LdPqOV1DomKu5oZFma-25" value="" style="fontSize=12;html=1;endArrow=ERzeroToMany;startArrow=ERmandOne;strokeColor=#000000;endSize=10;startSize=10;endFill=1;exitX=0;exitY=0.5;exitDx=0;exitDy=0;entryX=1;entryY=0.5;entryDx=0;entryDy=0;edgeStyle=orthogonalEdgeStyle;" edge="1" parent="1" source="SdtT5ybkrVDSRGNApIkS-15" target="SdtT5ybkrVDSRGNApIkS-5">
          <mxGeometry width="100" height="100" relative="1" as="geometry">
            <mxPoint x="550" y="894.9999999999998" as="sourcePoint" />
            <mxPoint x="650" y="445" as="targetPoint" />
          </mxGeometry>
        </mxCell>
        <mxCell id="5mIJEUFTQ7qlV4UU8vpN-4" value="Payments" style="shape=table;startSize=30;container=1;collapsible=1;childLayout=tableLayout;fixedRows=1;rowLines=0;fontStyle=1;align=center;resizeLast=1;" vertex="1" parent="1">
          <mxGeometry x="355" y="790" width="180" height="160" as="geometry" />
        </mxCell>
        <mxCell id="5mIJEUFTQ7qlV4UU8vpN-5" value="" style="shape=partialRectangle;collapsible=0;dropTarget=0;pointerEvents=0;fillColor=none;top=0;left=0;bottom=1;right=0;points=[[0,0.5],[1,0.5]];portConstraint=eastwest;" vertex="1" parent="5mIJEUFTQ7qlV4UU8vpN-4">
          <mxGeometry y="30" width="180" height="30" as="geometry" />
        </mxCell>
        <mxCell id="5mIJEUFTQ7qlV4UU8vpN-6" value="PK" style="shape=partialRectangle;connectable=0;fillColor=none;top=0;left=0;bottom=0;right=0;fontStyle=1;overflow=hidden;" vertex="1" parent="5mIJEUFTQ7qlV4UU8vpN-5">
          <mxGeometry width="30" height="30" as="geometry" />
        </mxCell>
        <mxCell id="5mIJEUFTQ7qlV4UU8vpN-7" value="PaymentID" style="shape=partialRectangle;connectable=0;fillColor=none;top=0;left=0;bottom=0;right=0;align=left;spacingLeft=6;fontStyle=5;overflow=hidden;" vertex="1" parent="5mIJEUFTQ7qlV4UU8vpN-5">
          <mxGeometry x="30" width="150" height="30" as="geometry" />
        </mxCell>
        <mxCell id="5mIJEUFTQ7qlV4UU8vpN-8" value="" style="shape=partialRectangle;collapsible=0;dropTarget=0;pointerEvents=0;fillColor=none;top=0;left=0;bottom=0;right=0;points=[[0,0.5],[1,0.5]];portConstraint=eastwest;" vertex="1" parent="5mIJEUFTQ7qlV4UU8vpN-4">
          <mxGeometry y="60" width="180" height="30" as="geometry" />
        </mxCell>
        <mxCell id="5mIJEUFTQ7qlV4UU8vpN-9" value="" style="shape=partialRectangle;connectable=0;fillColor=none;top=0;left=0;bottom=0;right=0;editable=1;overflow=hidden;" vertex="1" parent="5mIJEUFTQ7qlV4UU8vpN-8">
          <mxGeometry width="30" height="30" as="geometry" />
        </mxCell>
        <mxCell id="5mIJEUFTQ7qlV4UU8vpN-10" value="PaymentType" style="shape=partialRectangle;connectable=0;fillColor=none;top=0;left=0;bottom=0;right=0;align=left;spacingLeft=6;overflow=hidden;" vertex="1" parent="5mIJEUFTQ7qlV4UU8vpN-8">
          <mxGeometry x="30" width="150" height="30" as="geometry" />
        </mxCell>
        <mxCell id="5mIJEUFTQ7qlV4UU8vpN-11" value="" style="shape=partialRectangle;collapsible=0;dropTarget=0;pointerEvents=0;fillColor=none;top=0;left=0;bottom=0;right=0;points=[[0,0.5],[1,0.5]];portConstraint=eastwest;" vertex="1" parent="5mIJEUFTQ7qlV4UU8vpN-4">
          <mxGeometry y="90" width="180" height="30" as="geometry" />
        </mxCell>
        <mxCell id="5mIJEUFTQ7qlV4UU8vpN-12" value="" style="shape=partialRectangle;connectable=0;fillColor=none;top=0;left=0;bottom=0;right=0;editable=1;overflow=hidden;" vertex="1" parent="5mIJEUFTQ7qlV4UU8vpN-11">
          <mxGeometry width="30" height="30" as="geometry" />
        </mxCell>
        <mxCell id="5mIJEUFTQ7qlV4UU8vpN-13" value="PaymentStatus" style="shape=partialRectangle;connectable=0;fillColor=none;top=0;left=0;bottom=0;right=0;align=left;spacingLeft=6;overflow=hidden;" vertex="1" parent="5mIJEUFTQ7qlV4UU8vpN-11">
          <mxGeometry x="30" width="150" height="30" as="geometry" />
        </mxCell>
        <mxCell id="5mIJEUFTQ7qlV4UU8vpN-14" value="" style="shape=partialRectangle;collapsible=0;dropTarget=0;pointerEvents=0;fillColor=none;top=0;left=0;bottom=0;right=0;points=[[0,0.5],[1,0.5]];portConstraint=eastwest;" vertex="1" parent="5mIJEUFTQ7qlV4UU8vpN-4">
          <mxGeometry y="120" width="180" height="30" as="geometry" />
        </mxCell>
        <mxCell id="5mIJEUFTQ7qlV4UU8vpN-15" value="" style="shape=partialRectangle;connectable=0;fillColor=none;top=0;left=0;bottom=0;right=0;editable=1;overflow=hidden;" vertex="1" parent="5mIJEUFTQ7qlV4UU8vpN-14">
          <mxGeometry width="30" height="30" as="geometry" />
        </mxCell>
        <mxCell id="5mIJEUFTQ7qlV4UU8vpN-16" value="" style="shape=partialRectangle;connectable=0;fillColor=none;top=0;left=0;bottom=0;right=0;align=left;spacingLeft=6;overflow=hidden;" vertex="1" parent="5mIJEUFTQ7qlV4UU8vpN-14">
          <mxGeometry x="30" width="150" height="30" as="geometry" />
        </mxCell>
        <mxCell id="5mIJEUFTQ7qlV4UU8vpN-17" value="" style="fontSize=12;html=1;endArrow=ERzeroToMany;startArrow=ERmandOne;strokeColor=#000000;entryX=0;entryY=0.5;entryDx=0;entryDy=0;endSize=10;startSize=10;endFill=1;exitX=0;exitY=0.5;exitDx=0;exitDy=0;edgeStyle=orthogonalEdgeStyle;" edge="1" parent="1" source="5mIJEUFTQ7qlV4UU8vpN-5" target="5mIJEUFTQ7qlV4UU8vpN-1">
          <mxGeometry width="100" height="100" relative="1" as="geometry">
            <mxPoint x="240" y="600" as="sourcePoint" />
            <mxPoint x="350" y="500" as="targetPoint" />
            <Array as="points">
              <mxPoint x="310" y="835" />
              <mxPoint x="310" y="485" />
            </Array>
          </mxGeometry>
        </mxCell>
        <mxCell id="5mIJEUFTQ7qlV4UU8vpN-18" value="Address" style="shape=table;startSize=30;container=1;collapsible=1;childLayout=tableLayout;fixedRows=1;rowLines=0;fontStyle=1;align=center;resizeLast=1;" vertex="1" parent="1">
          <mxGeometry x="-260" y="90" width="180" height="250" as="geometry" />
        </mxCell>
        <mxCell id="5mIJEUFTQ7qlV4UU8vpN-19" value="" style="shape=partialRectangle;collapsible=0;dropTarget=0;pointerEvents=0;fillColor=none;top=0;left=0;bottom=1;right=0;points=[[0,0.5],[1,0.5]];portConstraint=eastwest;" vertex="1" parent="5mIJEUFTQ7qlV4UU8vpN-18">
          <mxGeometry y="30" width="180" height="30" as="geometry" />
        </mxCell>
        <mxCell id="5mIJEUFTQ7qlV4UU8vpN-20" value="PK" style="shape=partialRectangle;connectable=0;fillColor=none;top=0;left=0;bottom=0;right=0;fontStyle=1;overflow=hidden;" vertex="1" parent="5mIJEUFTQ7qlV4UU8vpN-19">
          <mxGeometry width="30" height="30" as="geometry" />
        </mxCell>
        <mxCell id="5mIJEUFTQ7qlV4UU8vpN-21" value="AddressID" style="shape=partialRectangle;connectable=0;fillColor=none;top=0;left=0;bottom=0;right=0;align=left;spacingLeft=6;fontStyle=5;overflow=hidden;" vertex="1" parent="5mIJEUFTQ7qlV4UU8vpN-19">
          <mxGeometry x="30" width="150" height="30" as="geometry" />
        </mxCell>
        <mxCell id="5mIJEUFTQ7qlV4UU8vpN-22" value="" style="shape=partialRectangle;collapsible=0;dropTarget=0;pointerEvents=0;fillColor=none;top=0;left=0;bottom=0;right=0;points=[[0,0.5],[1,0.5]];portConstraint=eastwest;" vertex="1" parent="5mIJEUFTQ7qlV4UU8vpN-18">
          <mxGeometry y="60" width="180" height="30" as="geometry" />
        </mxCell>
        <mxCell id="5mIJEUFTQ7qlV4UU8vpN-23" value="" style="shape=partialRectangle;connectable=0;fillColor=none;top=0;left=0;bottom=0;right=0;editable=1;overflow=hidden;" vertex="1" parent="5mIJEUFTQ7qlV4UU8vpN-22">
          <mxGeometry width="30" height="30" as="geometry" />
        </mxCell>
        <mxCell id="5mIJEUFTQ7qlV4UU8vpN-24" value="AddressLine1" style="shape=partialRectangle;connectable=0;fillColor=none;top=0;left=0;bottom=0;right=0;align=left;spacingLeft=6;overflow=hidden;" vertex="1" parent="5mIJEUFTQ7qlV4UU8vpN-22">
          <mxGeometry x="30" width="150" height="30" as="geometry" />
        </mxCell>
        <mxCell id="5mIJEUFTQ7qlV4UU8vpN-25" value="" style="shape=partialRectangle;collapsible=0;dropTarget=0;pointerEvents=0;fillColor=none;top=0;left=0;bottom=0;right=0;points=[[0,0.5],[1,0.5]];portConstraint=eastwest;" vertex="1" parent="5mIJEUFTQ7qlV4UU8vpN-18">
          <mxGeometry y="90" width="180" height="30" as="geometry" />
        </mxCell>
        <mxCell id="5mIJEUFTQ7qlV4UU8vpN-26" value="" style="shape=partialRectangle;connectable=0;fillColor=none;top=0;left=0;bottom=0;right=0;editable=1;overflow=hidden;" vertex="1" parent="5mIJEUFTQ7qlV4UU8vpN-25">
          <mxGeometry width="30" height="30" as="geometry" />
        </mxCell>
        <mxCell id="5mIJEUFTQ7qlV4UU8vpN-27" value="AddressLine2" style="shape=partialRectangle;connectable=0;fillColor=none;top=0;left=0;bottom=0;right=0;align=left;spacingLeft=6;overflow=hidden;" vertex="1" parent="5mIJEUFTQ7qlV4UU8vpN-25">
          <mxGeometry x="30" width="150" height="30" as="geometry" />
        </mxCell>
        <mxCell id="5mIJEUFTQ7qlV4UU8vpN-28" value="" style="shape=partialRectangle;collapsible=0;dropTarget=0;pointerEvents=0;fillColor=none;top=0;left=0;bottom=0;right=0;points=[[0,0.5],[1,0.5]];portConstraint=eastwest;" vertex="1" parent="5mIJEUFTQ7qlV4UU8vpN-18">
          <mxGeometry y="120" width="180" height="30" as="geometry" />
        </mxCell>
        <mxCell id="5mIJEUFTQ7qlV4UU8vpN-29" value="" style="shape=partialRectangle;connectable=0;fillColor=none;top=0;left=0;bottom=0;right=0;editable=1;overflow=hidden;" vertex="1" parent="5mIJEUFTQ7qlV4UU8vpN-28">
          <mxGeometry width="30" height="30" as="geometry" />
        </mxCell>
        <mxCell id="5mIJEUFTQ7qlV4UU8vpN-30" value="City" style="shape=partialRectangle;connectable=0;fillColor=none;top=0;left=0;bottom=0;right=0;align=left;spacingLeft=6;overflow=hidden;" vertex="1" parent="5mIJEUFTQ7qlV4UU8vpN-28">
          <mxGeometry x="30" width="150" height="30" as="geometry" />
        </mxCell>
        <mxCell id="5mIJEUFTQ7qlV4UU8vpN-46" value="" style="shape=partialRectangle;collapsible=0;dropTarget=0;pointerEvents=0;fillColor=none;top=0;left=0;bottom=0;right=0;points=[[0,0.5],[1,0.5]];portConstraint=eastwest;" vertex="1" parent="5mIJEUFTQ7qlV4UU8vpN-18">
          <mxGeometry y="150" width="180" height="30" as="geometry" />
        </mxCell>
        <mxCell id="5mIJEUFTQ7qlV4UU8vpN-47" value="" style="shape=partialRectangle;connectable=0;fillColor=none;top=0;left=0;bottom=0;right=0;editable=1;overflow=hidden;" vertex="1" parent="5mIJEUFTQ7qlV4UU8vpN-46">
          <mxGeometry width="30" height="30" as="geometry" />
        </mxCell>
        <mxCell id="5mIJEUFTQ7qlV4UU8vpN-48" value="Region" style="shape=partialRectangle;connectable=0;fillColor=none;top=0;left=0;bottom=0;right=0;align=left;spacingLeft=6;overflow=hidden;" vertex="1" parent="5mIJEUFTQ7qlV4UU8vpN-46">
          <mxGeometry x="30" width="150" height="30" as="geometry" />
        </mxCell>
        <mxCell id="5mIJEUFTQ7qlV4UU8vpN-39" value="" style="shape=partialRectangle;collapsible=0;dropTarget=0;pointerEvents=0;fillColor=none;top=0;left=0;bottom=0;right=0;points=[[0,0.5],[1,0.5]];portConstraint=eastwest;" vertex="1" parent="5mIJEUFTQ7qlV4UU8vpN-18">
          <mxGeometry y="180" width="180" height="30" as="geometry" />
        </mxCell>
        <mxCell id="5mIJEUFTQ7qlV4UU8vpN-40" value="" style="shape=partialRectangle;connectable=0;fillColor=none;top=0;left=0;bottom=0;right=0;editable=1;overflow=hidden;" vertex="1" parent="5mIJEUFTQ7qlV4UU8vpN-39">
          <mxGeometry width="30" height="30" as="geometry" />
        </mxCell>
        <mxCell id="5mIJEUFTQ7qlV4UU8vpN-41" value="PostalCode" style="shape=partialRectangle;connectable=0;fillColor=none;top=0;left=0;bottom=0;right=0;align=left;spacingLeft=6;overflow=hidden;" vertex="1" parent="5mIJEUFTQ7qlV4UU8vpN-39">
          <mxGeometry x="30" width="150" height="30" as="geometry" />
        </mxCell>
        <mxCell id="5mIJEUFTQ7qlV4UU8vpN-43" value="" style="shape=partialRectangle;collapsible=0;dropTarget=0;pointerEvents=0;fillColor=none;top=0;left=0;bottom=0;right=0;points=[[0,0.5],[1,0.5]];portConstraint=eastwest;" vertex="1" parent="5mIJEUFTQ7qlV4UU8vpN-18">
          <mxGeometry y="210" width="180" height="30" as="geometry" />
        </mxCell>
        <mxCell id="5mIJEUFTQ7qlV4UU8vpN-44" value="" style="shape=partialRectangle;connectable=0;fillColor=none;top=0;left=0;bottom=0;right=0;editable=1;overflow=hidden;" vertex="1" parent="5mIJEUFTQ7qlV4UU8vpN-43">
          <mxGeometry width="30" height="30" as="geometry" />
        </mxCell>
        <mxCell id="5mIJEUFTQ7qlV4UU8vpN-45" value="Country" style="shape=partialRectangle;connectable=0;fillColor=none;top=0;left=0;bottom=0;right=0;align=left;spacingLeft=6;overflow=hidden;" vertex="1" parent="5mIJEUFTQ7qlV4UU8vpN-43">
          <mxGeometry x="30" width="150" height="30" as="geometry" />
        </mxCell>
        <mxCell id="5mIJEUFTQ7qlV4UU8vpN-49" value="" style="fontSize=12;html=1;endArrow=ERzeroToMany;startArrow=ERmandOne;strokeColor=#000000;entryX=0;entryY=0.5;entryDx=0;entryDy=0;endSize=10;startSize=10;endFill=1;edgeStyle=orthogonalEdgeStyle;" edge="1" parent="1" source="5mIJEUFTQ7qlV4UU8vpN-19" target="vSh4W7z1Wrmtp2xvGvMz-70">
          <mxGeometry width="100" height="100" relative="1" as="geometry">
            <mxPoint x="-30" y="210" as="sourcePoint" />
            <mxPoint x="-30" y="435" as="targetPoint" />
            <Array as="points">
              <mxPoint x="-20" y="135" />
              <mxPoint x="-20" y="255" />
            </Array>
          </mxGeometry>
        </mxCell>
        <mxCell id="5mIJEUFTQ7qlV4UU8vpN-50" value="" style="fontSize=12;html=1;endArrow=ERzeroToMany;startArrow=ERmandOne;strokeColor=#000000;entryX=0;entryY=0.5;entryDx=0;entryDy=0;endSize=10;startSize=10;endFill=1;edgeStyle=orthogonalEdgeStyle;exitX=1;exitY=0.5;exitDx=0;exitDy=0;" edge="1" parent="1" source="5mIJEUFTQ7qlV4UU8vpN-19" target="aUuIClHJeDKS3d_8rlHw-17">
          <mxGeometry width="100" height="100" relative="1" as="geometry">
            <mxPoint x="-70" y="145.0000000000001" as="sourcePoint" />
            <mxPoint x="60" y="295" as="targetPoint" />
            <Array as="points">
              <mxPoint x="-20" y="135" />
              <mxPoint x="-20" y="515" />
            </Array>
          </mxGeometry>
        </mxCell>
        <mxCell id="5mIJEUFTQ7qlV4UU8vpN-51" value="Contact" style="shape=table;startSize=40;container=1;collapsible=1;childLayout=tableLayout;fixedRows=1;rowLines=0;fontStyle=1;align=center;resizeLast=1;" vertex="1" parent="1">
          <mxGeometry x="-260" y="430" width="180" height="280" as="geometry" />
        </mxCell>
        <mxCell id="5mIJEUFTQ7qlV4UU8vpN-52" value="" style="shape=partialRectangle;collapsible=0;dropTarget=0;pointerEvents=0;fillColor=none;top=0;left=0;bottom=1;right=0;points=[[0,0.5],[1,0.5]];portConstraint=eastwest;" vertex="1" parent="5mIJEUFTQ7qlV4UU8vpN-51">
          <mxGeometry y="40" width="180" height="30" as="geometry" />
        </mxCell>
        <mxCell id="5mIJEUFTQ7qlV4UU8vpN-53" value="PK" style="shape=partialRectangle;connectable=0;fillColor=none;top=0;left=0;bottom=0;right=0;fontStyle=1;overflow=hidden;" vertex="1" parent="5mIJEUFTQ7qlV4UU8vpN-52">
          <mxGeometry width="30" height="30" as="geometry" />
        </mxCell>
        <mxCell id="5mIJEUFTQ7qlV4UU8vpN-54" value="ContactID" style="shape=partialRectangle;connectable=0;fillColor=none;top=0;left=0;bottom=0;right=0;align=left;spacingLeft=6;fontStyle=5;overflow=hidden;" vertex="1" parent="5mIJEUFTQ7qlV4UU8vpN-52">
          <mxGeometry x="30" width="150" height="30" as="geometry" />
        </mxCell>
        <mxCell id="5mIJEUFTQ7qlV4UU8vpN-55" value="" style="shape=partialRectangle;collapsible=0;dropTarget=0;pointerEvents=0;fillColor=none;top=0;left=0;bottom=0;right=0;points=[[0,0.5],[1,0.5]];portConstraint=eastwest;" vertex="1" parent="5mIJEUFTQ7qlV4UU8vpN-51">
          <mxGeometry y="70" width="180" height="30" as="geometry" />
        </mxCell>
        <mxCell id="5mIJEUFTQ7qlV4UU8vpN-56" value="" style="shape=partialRectangle;connectable=0;fillColor=none;top=0;left=0;bottom=0;right=0;editable=1;overflow=hidden;" vertex="1" parent="5mIJEUFTQ7qlV4UU8vpN-55">
          <mxGeometry width="30" height="30" as="geometry" />
        </mxCell>
        <mxCell id="5mIJEUFTQ7qlV4UU8vpN-57" value="Title" style="shape=partialRectangle;connectable=0;fillColor=none;top=0;left=0;bottom=0;right=0;align=left;spacingLeft=6;overflow=hidden;" vertex="1" parent="5mIJEUFTQ7qlV4UU8vpN-55">
          <mxGeometry x="30" width="150" height="30" as="geometry" />
        </mxCell>
        <mxCell id="5mIJEUFTQ7qlV4UU8vpN-58" value="" style="shape=partialRectangle;collapsible=0;dropTarget=0;pointerEvents=0;fillColor=none;top=0;left=0;bottom=0;right=0;points=[[0,0.5],[1,0.5]];portConstraint=eastwest;" vertex="1" parent="5mIJEUFTQ7qlV4UU8vpN-51">
          <mxGeometry y="100" width="180" height="30" as="geometry" />
        </mxCell>
        <mxCell id="5mIJEUFTQ7qlV4UU8vpN-59" value="" style="shape=partialRectangle;connectable=0;fillColor=none;top=0;left=0;bottom=0;right=0;editable=1;overflow=hidden;" vertex="1" parent="5mIJEUFTQ7qlV4UU8vpN-58">
          <mxGeometry width="30" height="30" as="geometry" />
        </mxCell>
        <mxCell id="5mIJEUFTQ7qlV4UU8vpN-60" value="FirstName" style="shape=partialRectangle;connectable=0;fillColor=none;top=0;left=0;bottom=0;right=0;align=left;spacingLeft=6;overflow=hidden;" vertex="1" parent="5mIJEUFTQ7qlV4UU8vpN-58">
          <mxGeometry x="30" width="150" height="30" as="geometry" />
        </mxCell>
        <mxCell id="5mIJEUFTQ7qlV4UU8vpN-61" value="" style="shape=partialRectangle;collapsible=0;dropTarget=0;pointerEvents=0;fillColor=none;top=0;left=0;bottom=0;right=0;points=[[0,0.5],[1,0.5]];portConstraint=eastwest;" vertex="1" parent="5mIJEUFTQ7qlV4UU8vpN-51">
          <mxGeometry y="130" width="180" height="30" as="geometry" />
        </mxCell>
        <mxCell id="5mIJEUFTQ7qlV4UU8vpN-62" value="" style="shape=partialRectangle;connectable=0;fillColor=none;top=0;left=0;bottom=0;right=0;editable=1;overflow=hidden;" vertex="1" parent="5mIJEUFTQ7qlV4UU8vpN-61">
          <mxGeometry width="30" height="30" as="geometry" />
        </mxCell>
        <mxCell id="5mIJEUFTQ7qlV4UU8vpN-63" value="MiddleName" style="shape=partialRectangle;connectable=0;fillColor=none;top=0;left=0;bottom=0;right=0;align=left;spacingLeft=6;overflow=hidden;" vertex="1" parent="5mIJEUFTQ7qlV4UU8vpN-61">
          <mxGeometry x="30" width="150" height="30" as="geometry" />
        </mxCell>
        <mxCell id="5mIJEUFTQ7qlV4UU8vpN-64" value="" style="shape=partialRectangle;collapsible=0;dropTarget=0;pointerEvents=0;fillColor=none;top=0;left=0;bottom=0;right=0;points=[[0,0.5],[1,0.5]];portConstraint=eastwest;" vertex="1" parent="5mIJEUFTQ7qlV4UU8vpN-51">
          <mxGeometry y="160" width="180" height="30" as="geometry" />
        </mxCell>
        <mxCell id="5mIJEUFTQ7qlV4UU8vpN-65" value="" style="shape=partialRectangle;connectable=0;fillColor=none;top=0;left=0;bottom=0;right=0;editable=1;overflow=hidden;" vertex="1" parent="5mIJEUFTQ7qlV4UU8vpN-64">
          <mxGeometry width="30" height="30" as="geometry" />
        </mxCell>
        <mxCell id="5mIJEUFTQ7qlV4UU8vpN-66" value="LastName" style="shape=partialRectangle;connectable=0;fillColor=none;top=0;left=0;bottom=0;right=0;align=left;spacingLeft=6;overflow=hidden;" vertex="1" parent="5mIJEUFTQ7qlV4UU8vpN-64">
          <mxGeometry x="30" width="150" height="30" as="geometry" />
        </mxCell>
        <mxCell id="5mIJEUFTQ7qlV4UU8vpN-77" value="" style="shape=partialRectangle;collapsible=0;dropTarget=0;pointerEvents=0;fillColor=none;top=0;left=0;bottom=0;right=0;points=[[0,0.5],[1,0.5]];portConstraint=eastwest;" vertex="1" parent="5mIJEUFTQ7qlV4UU8vpN-51">
          <mxGeometry y="190" width="180" height="30" as="geometry" />
        </mxCell>
        <mxCell id="5mIJEUFTQ7qlV4UU8vpN-78" value="" style="shape=partialRectangle;connectable=0;fillColor=none;top=0;left=0;bottom=0;right=0;editable=1;overflow=hidden;" vertex="1" parent="5mIJEUFTQ7qlV4UU8vpN-77">
          <mxGeometry width="30" height="30" as="geometry" />
        </mxCell>
        <mxCell id="5mIJEUFTQ7qlV4UU8vpN-79" value="BirthDay" style="shape=partialRectangle;connectable=0;fillColor=none;top=0;left=0;bottom=0;right=0;align=left;spacingLeft=6;overflow=hidden;" vertex="1" parent="5mIJEUFTQ7qlV4UU8vpN-77">
          <mxGeometry x="30" width="150" height="30" as="geometry" />
        </mxCell>
        <mxCell id="5mIJEUFTQ7qlV4UU8vpN-67" value="" style="shape=partialRectangle;collapsible=0;dropTarget=0;pointerEvents=0;fillColor=none;top=0;left=0;bottom=0;right=0;points=[[0,0.5],[1,0.5]];portConstraint=eastwest;" vertex="1" parent="5mIJEUFTQ7qlV4UU8vpN-51">
          <mxGeometry y="220" width="180" height="30" as="geometry" />
        </mxCell>
        <mxCell id="5mIJEUFTQ7qlV4UU8vpN-68" value="" style="shape=partialRectangle;connectable=0;fillColor=none;top=0;left=0;bottom=0;right=0;editable=1;overflow=hidden;" vertex="1" parent="5mIJEUFTQ7qlV4UU8vpN-67">
          <mxGeometry width="30" height="30" as="geometry" />
        </mxCell>
        <mxCell id="5mIJEUFTQ7qlV4UU8vpN-69" value="Email" style="shape=partialRectangle;connectable=0;fillColor=none;top=0;left=0;bottom=0;right=0;align=left;spacingLeft=6;overflow=hidden;" vertex="1" parent="5mIJEUFTQ7qlV4UU8vpN-67">
          <mxGeometry x="30" width="150" height="30" as="geometry" />
        </mxCell>
        <mxCell id="5mIJEUFTQ7qlV4UU8vpN-70" value="" style="shape=partialRectangle;collapsible=0;dropTarget=0;pointerEvents=0;fillColor=none;top=0;left=0;bottom=0;right=0;points=[[0,0.5],[1,0.5]];portConstraint=eastwest;" vertex="1" parent="5mIJEUFTQ7qlV4UU8vpN-51">
          <mxGeometry y="250" width="180" height="30" as="geometry" />
        </mxCell>
        <mxCell id="5mIJEUFTQ7qlV4UU8vpN-71" value="" style="shape=partialRectangle;connectable=0;fillColor=none;top=0;left=0;bottom=0;right=0;editable=1;overflow=hidden;" vertex="1" parent="5mIJEUFTQ7qlV4UU8vpN-70">
          <mxGeometry width="30" height="30" as="geometry" />
        </mxCell>
        <mxCell id="5mIJEUFTQ7qlV4UU8vpN-72" value="Phone" style="shape=partialRectangle;connectable=0;fillColor=none;top=0;left=0;bottom=0;right=0;align=left;spacingLeft=6;overflow=hidden;" vertex="1" parent="5mIJEUFTQ7qlV4UU8vpN-70">
          <mxGeometry x="30" width="150" height="30" as="geometry" />
        </mxCell>
        <mxCell id="5mIJEUFTQ7qlV4UU8vpN-73" value="" style="fontSize=12;html=1;endArrow=ERzeroToMany;startArrow=ERmandOne;strokeColor=#000000;entryX=0;entryY=0.5;entryDx=0;entryDy=0;endSize=10;startSize=10;endFill=1;exitX=1;exitY=0.5;exitDx=0;exitDy=0;edgeStyle=orthogonalEdgeStyle;" edge="1" parent="1" source="5mIJEUFTQ7qlV4UU8vpN-52" target="5mIJEUFTQ7qlV4UU8vpN-74">
          <mxGeometry width="100" height="100" relative="1" as="geometry">
            <mxPoint x="-70" y="144.9999999999999" as="sourcePoint" />
            <mxPoint x="60" y="755" as="targetPoint" />
            <Array as="points">
              <mxPoint x="-50" y="485" />
              <mxPoint x="-50" y="225" />
            </Array>
          </mxGeometry>
        </mxCell>
        <mxCell id="5mIJEUFTQ7qlV4UU8vpN-80" value="" style="fontSize=12;html=1;endArrow=ERzeroToMany;startArrow=ERmandOne;strokeColor=#000000;endSize=10;startSize=10;endFill=1;exitX=1;exitY=0.5;exitDx=0;exitDy=0;entryX=0;entryY=0.5;entryDx=0;entryDy=0;edgeStyle=orthogonalEdgeStyle;" edge="1" parent="1" source="5mIJEUFTQ7qlV4UU8vpN-52" target="aUuIClHJeDKS3d_8rlHw-5">
          <mxGeometry width="100" height="100" relative="1" as="geometry">
            <mxPoint x="-70" y="485" as="sourcePoint" />
            <mxPoint x="50" y="290" as="targetPoint" />
          </mxGeometry>
        </mxCell>
        <mxCell id="5mIJEUFTQ7qlV4UU8vpN-81" value="" style="fontSize=12;html=1;endArrow=ERzeroToMany;startArrow=ERmandOne;strokeColor=#000000;entryX=0;entryY=0.5;entryDx=0;entryDy=0;endSize=10;startSize=10;endFill=1;exitX=1;exitY=0.5;exitDx=0;exitDy=0;edgeStyle=orthogonalEdgeStyle;" edge="1" parent="1" source="5mIJEUFTQ7qlV4UU8vpN-19" target="JWprUIELTiPrC8QZkW9A-57">
          <mxGeometry width="100" height="100" relative="1" as="geometry">
            <mxPoint x="240" y="204.9999999999999" as="sourcePoint" />
            <mxPoint x="360" y="435" as="targetPoint" />
            <Array as="points">
              <mxPoint x="270" y="135" />
              <mxPoint x="270" y="695" />
            </Array>
          </mxGeometry>
        </mxCell>
      </root>
    </mxGraphModel>
  </diagram>
  <diagram name="ERD Log Tables" id="t9G4Y2Qgbw_O0CFqtW7P">
    <mxGraphModel dx="1483" dy="783" grid="1" gridSize="10" guides="1" tooltips="1" connect="1" arrows="1" fold="1" page="1" pageScale="1" pageWidth="827" pageHeight="1169" math="0" shadow="0">
      <root>
        <mxCell id="0" />
        <mxCell id="1" parent="0" />
        <mxCell id="K0i3wU2QV5IIWdwdIUBV-3" value="ErrorLog" style="shape=table;startSize=30;container=1;collapsible=1;childLayout=tableLayout;fixedRows=1;rowLines=0;fontStyle=1;align=center;resizeLast=1;" parent="1" vertex="1">
          <mxGeometry x="560" y="330" width="160" height="300" as="geometry" />
        </mxCell>
        <mxCell id="K0i3wU2QV5IIWdwdIUBV-4" value="" style="shape=partialRectangle;collapsible=0;dropTarget=0;pointerEvents=0;fillColor=none;top=0;left=0;bottom=1;right=0;points=[[0,0.5],[1,0.5]];portConstraint=eastwest;" parent="K0i3wU2QV5IIWdwdIUBV-3" vertex="1">
          <mxGeometry y="30" width="160" height="30" as="geometry" />
        </mxCell>
        <mxCell id="K0i3wU2QV5IIWdwdIUBV-5" value="PK" style="shape=partialRectangle;connectable=0;fillColor=none;top=0;left=0;bottom=0;right=0;fontStyle=1;overflow=hidden;" parent="K0i3wU2QV5IIWdwdIUBV-4" vertex="1">
          <mxGeometry width="30" height="30" as="geometry" />
        </mxCell>
        <mxCell id="K0i3wU2QV5IIWdwdIUBV-6" value="ErrorID" style="shape=partialRectangle;connectable=0;fillColor=none;top=0;left=0;bottom=0;right=0;align=left;spacingLeft=6;fontStyle=5;overflow=hidden;" parent="K0i3wU2QV5IIWdwdIUBV-4" vertex="1">
          <mxGeometry x="30" width="130" height="30" as="geometry" />
        </mxCell>
        <mxCell id="kAXm22sGxHdlL6DxmAPc-42" value="" style="shape=partialRectangle;collapsible=0;dropTarget=0;pointerEvents=0;fillColor=none;top=0;left=0;bottom=0;right=0;points=[[0,0.5],[1,0.5]];portConstraint=eastwest;" parent="K0i3wU2QV5IIWdwdIUBV-3" vertex="1">
          <mxGeometry y="60" width="160" height="30" as="geometry" />
        </mxCell>
        <mxCell id="kAXm22sGxHdlL6DxmAPc-43" value="FK" style="shape=partialRectangle;connectable=0;fillColor=none;top=0;left=0;bottom=0;right=0;editable=1;overflow=hidden;" parent="kAXm22sGxHdlL6DxmAPc-42" vertex="1">
          <mxGeometry width="30" height="30" as="geometry" />
        </mxCell>
        <mxCell id="kAXm22sGxHdlL6DxmAPc-44" value="OperationRunID" style="shape=partialRectangle;connectable=0;fillColor=none;top=0;left=0;bottom=0;right=0;align=left;spacingLeft=6;overflow=hidden;" parent="kAXm22sGxHdlL6DxmAPc-42" vertex="1">
          <mxGeometry x="30" width="130" height="30" as="geometry" />
        </mxCell>
        <mxCell id="kAXm22sGxHdlL6DxmAPc-52" value="" style="shape=partialRectangle;collapsible=0;dropTarget=0;pointerEvents=0;fillColor=none;top=0;left=0;bottom=0;right=0;points=[[0,0.5],[1,0.5]];portConstraint=eastwest;" parent="K0i3wU2QV5IIWdwdIUBV-3" vertex="1">
          <mxGeometry y="90" width="160" height="30" as="geometry" />
        </mxCell>
        <mxCell id="kAXm22sGxHdlL6DxmAPc-53" value="FK" style="shape=partialRectangle;connectable=0;fillColor=none;top=0;left=0;bottom=0;right=0;editable=1;overflow=hidden;" parent="kAXm22sGxHdlL6DxmAPc-52" vertex="1">
          <mxGeometry width="30" height="30" as="geometry" />
        </mxCell>
        <mxCell id="kAXm22sGxHdlL6DxmAPc-54" value="EventID" style="shape=partialRectangle;connectable=0;fillColor=none;top=0;left=0;bottom=0;right=0;align=left;spacingLeft=6;overflow=hidden;" parent="kAXm22sGxHdlL6DxmAPc-52" vertex="1">
          <mxGeometry x="30" width="130" height="30" as="geometry" />
        </mxCell>
        <mxCell id="K0i3wU2QV5IIWdwdIUBV-7" value="" style="shape=partialRectangle;collapsible=0;dropTarget=0;pointerEvents=0;fillColor=none;top=0;left=0;bottom=0;right=0;points=[[0,0.5],[1,0.5]];portConstraint=eastwest;" parent="K0i3wU2QV5IIWdwdIUBV-3" vertex="1">
          <mxGeometry y="120" width="160" height="30" as="geometry" />
        </mxCell>
        <mxCell id="K0i3wU2QV5IIWdwdIUBV-8" value="" style="shape=partialRectangle;connectable=0;fillColor=none;top=0;left=0;bottom=0;right=0;editable=1;overflow=hidden;" parent="K0i3wU2QV5IIWdwdIUBV-7" vertex="1">
          <mxGeometry width="30" height="30" as="geometry" />
        </mxCell>
        <mxCell id="K0i3wU2QV5IIWdwdIUBV-9" value="ErrorNumber" style="shape=partialRectangle;connectable=0;fillColor=none;top=0;left=0;bottom=0;right=0;align=left;spacingLeft=6;overflow=hidden;" parent="K0i3wU2QV5IIWdwdIUBV-7" vertex="1">
          <mxGeometry x="30" width="130" height="30" as="geometry" />
        </mxCell>
        <mxCell id="kAXm22sGxHdlL6DxmAPc-46" value="" style="shape=partialRectangle;collapsible=0;dropTarget=0;pointerEvents=0;fillColor=none;top=0;left=0;bottom=0;right=0;points=[[0,0.5],[1,0.5]];portConstraint=eastwest;" parent="K0i3wU2QV5IIWdwdIUBV-3" vertex="1">
          <mxGeometry y="150" width="160" height="30" as="geometry" />
        </mxCell>
        <mxCell id="kAXm22sGxHdlL6DxmAPc-47" value="" style="shape=partialRectangle;connectable=0;fillColor=none;top=0;left=0;bottom=0;right=0;editable=1;overflow=hidden;" parent="kAXm22sGxHdlL6DxmAPc-46" vertex="1">
          <mxGeometry width="30" height="30" as="geometry" />
        </mxCell>
        <mxCell id="kAXm22sGxHdlL6DxmAPc-48" value="ErrorProcName" style="shape=partialRectangle;connectable=0;fillColor=none;top=0;left=0;bottom=0;right=0;align=left;spacingLeft=6;overflow=hidden;" parent="kAXm22sGxHdlL6DxmAPc-46" vertex="1">
          <mxGeometry x="30" width="130" height="30" as="geometry" />
        </mxCell>
        <mxCell id="kAXm22sGxHdlL6DxmAPc-49" value="" style="shape=partialRectangle;collapsible=0;dropTarget=0;pointerEvents=0;fillColor=none;top=0;left=0;bottom=0;right=0;points=[[0,0.5],[1,0.5]];portConstraint=eastwest;" parent="K0i3wU2QV5IIWdwdIUBV-3" vertex="1">
          <mxGeometry y="180" width="160" height="30" as="geometry" />
        </mxCell>
        <mxCell id="kAXm22sGxHdlL6DxmAPc-50" value="" style="shape=partialRectangle;connectable=0;fillColor=none;top=0;left=0;bottom=0;right=0;editable=1;overflow=hidden;" parent="kAXm22sGxHdlL6DxmAPc-49" vertex="1">
          <mxGeometry width="30" height="30" as="geometry" />
        </mxCell>
        <mxCell id="kAXm22sGxHdlL6DxmAPc-51" value="Parameters" style="shape=partialRectangle;connectable=0;fillColor=none;top=0;left=0;bottom=0;right=0;align=left;spacingLeft=6;overflow=hidden;" parent="kAXm22sGxHdlL6DxmAPc-49" vertex="1">
          <mxGeometry x="30" width="130" height="30" as="geometry" />
        </mxCell>
        <mxCell id="K0i3wU2QV5IIWdwdIUBV-10" value="" style="shape=partialRectangle;collapsible=0;dropTarget=0;pointerEvents=0;fillColor=none;top=0;left=0;bottom=0;right=0;points=[[0,0.5],[1,0.5]];portConstraint=eastwest;" parent="K0i3wU2QV5IIWdwdIUBV-3" vertex="1">
          <mxGeometry y="210" width="160" height="30" as="geometry" />
        </mxCell>
        <mxCell id="K0i3wU2QV5IIWdwdIUBV-11" value="" style="shape=partialRectangle;connectable=0;fillColor=none;top=0;left=0;bottom=0;right=0;editable=1;overflow=hidden;" parent="K0i3wU2QV5IIWdwdIUBV-10" vertex="1">
          <mxGeometry width="30" height="30" as="geometry" />
        </mxCell>
        <mxCell id="K0i3wU2QV5IIWdwdIUBV-12" value="ErrorMessage" style="shape=partialRectangle;connectable=0;fillColor=none;top=0;left=0;bottom=0;right=0;align=left;spacingLeft=6;overflow=hidden;" parent="K0i3wU2QV5IIWdwdIUBV-10" vertex="1">
          <mxGeometry x="30" width="130" height="30" as="geometry" />
        </mxCell>
        <mxCell id="K0i3wU2QV5IIWdwdIUBV-13" value="" style="shape=partialRectangle;collapsible=0;dropTarget=0;pointerEvents=0;fillColor=none;top=0;left=0;bottom=0;right=0;points=[[0,0.5],[1,0.5]];portConstraint=eastwest;" parent="K0i3wU2QV5IIWdwdIUBV-3" vertex="1">
          <mxGeometry y="240" width="160" height="30" as="geometry" />
        </mxCell>
        <mxCell id="K0i3wU2QV5IIWdwdIUBV-14" value="" style="shape=partialRectangle;connectable=0;fillColor=none;top=0;left=0;bottom=0;right=0;editable=1;overflow=hidden;" parent="K0i3wU2QV5IIWdwdIUBV-13" vertex="1">
          <mxGeometry width="30" height="30" as="geometry" />
        </mxCell>
        <mxCell id="K0i3wU2QV5IIWdwdIUBV-15" value="ErrorDateTime" style="shape=partialRectangle;connectable=0;fillColor=none;top=0;left=0;bottom=0;right=0;align=left;spacingLeft=6;overflow=hidden;" parent="K0i3wU2QV5IIWdwdIUBV-13" vertex="1">
          <mxGeometry x="30" width="130" height="30" as="geometry" />
        </mxCell>
        <mxCell id="cjsIKWXRiVvNh0Afup5I-6" value="EventLog" style="shape=table;startSize=30;container=1;collapsible=1;childLayout=tableLayout;fixedRows=1;rowLines=0;fontStyle=1;align=center;resizeLast=1;flipH=1;" parent="1" vertex="1">
          <mxGeometry x="240" y="330" width="190" height="290" as="geometry" />
        </mxCell>
        <mxCell id="cjsIKWXRiVvNh0Afup5I-7" value="" style="shape=partialRectangle;collapsible=0;dropTarget=0;pointerEvents=0;fillColor=none;top=0;left=0;bottom=1;right=0;points=[[0,0.5],[1,0.5]];portConstraint=eastwest;" parent="cjsIKWXRiVvNh0Afup5I-6" vertex="1">
          <mxGeometry y="30" width="190" height="30" as="geometry" />
        </mxCell>
        <mxCell id="cjsIKWXRiVvNh0Afup5I-8" value="PK" style="shape=partialRectangle;connectable=0;fillColor=none;top=0;left=0;bottom=0;right=0;fontStyle=1;overflow=hidden;" parent="cjsIKWXRiVvNh0Afup5I-7" vertex="1">
          <mxGeometry width="30" height="30" as="geometry" />
        </mxCell>
        <mxCell id="cjsIKWXRiVvNh0Afup5I-9" value="EventID" style="shape=partialRectangle;connectable=0;fillColor=none;top=0;left=0;bottom=0;right=0;align=left;spacingLeft=6;fontStyle=5;overflow=hidden;" parent="cjsIKWXRiVvNh0Afup5I-7" vertex="1">
          <mxGeometry x="30" width="160" height="30" as="geometry" />
        </mxCell>
        <mxCell id="kAXm22sGxHdlL6DxmAPc-39" value="" style="shape=partialRectangle;collapsible=0;dropTarget=0;pointerEvents=0;fillColor=none;top=0;left=0;bottom=0;right=0;points=[[0,0.5],[1,0.5]];portConstraint=eastwest;" parent="cjsIKWXRiVvNh0Afup5I-6" vertex="1">
          <mxGeometry y="60" width="190" height="30" as="geometry" />
        </mxCell>
        <mxCell id="kAXm22sGxHdlL6DxmAPc-40" value="FK" style="shape=partialRectangle;connectable=0;fillColor=none;top=0;left=0;bottom=0;right=0;editable=1;overflow=hidden;" parent="kAXm22sGxHdlL6DxmAPc-39" vertex="1">
          <mxGeometry width="30" height="30" as="geometry" />
        </mxCell>
        <mxCell id="kAXm22sGxHdlL6DxmAPc-41" value="OperationRunID" style="shape=partialRectangle;connectable=0;fillColor=none;top=0;left=0;bottom=0;right=0;align=left;spacingLeft=6;overflow=hidden;" parent="kAXm22sGxHdlL6DxmAPc-39" vertex="1">
          <mxGeometry x="30" width="160" height="30" as="geometry" />
        </mxCell>
        <mxCell id="cjsIKWXRiVvNh0Afup5I-10" value="" style="shape=partialRectangle;collapsible=0;dropTarget=0;pointerEvents=0;fillColor=none;top=0;left=0;bottom=0;right=0;points=[[0,0.5],[1,0.5]];portConstraint=eastwest;" parent="cjsIKWXRiVvNh0Afup5I-6" vertex="1">
          <mxGeometry y="90" width="190" height="30" as="geometry" />
        </mxCell>
        <mxCell id="cjsIKWXRiVvNh0Afup5I-11" value="" style="shape=partialRectangle;connectable=0;fillColor=none;top=0;left=0;bottom=0;right=0;editable=1;overflow=hidden;" parent="cjsIKWXRiVvNh0Afup5I-10" vertex="1">
          <mxGeometry width="30" height="30" as="geometry" />
        </mxCell>
        <mxCell id="cjsIKWXRiVvNh0Afup5I-12" value="User" style="shape=partialRectangle;connectable=0;fillColor=none;top=0;left=0;bottom=0;right=0;align=left;spacingLeft=6;overflow=hidden;" parent="cjsIKWXRiVvNh0Afup5I-10" vertex="1">
          <mxGeometry x="30" width="160" height="30" as="geometry" />
        </mxCell>
        <mxCell id="kAXm22sGxHdlL6DxmAPc-36" value="" style="shape=partialRectangle;collapsible=0;dropTarget=0;pointerEvents=0;fillColor=none;top=0;left=0;bottom=0;right=0;points=[[0,0.5],[1,0.5]];portConstraint=eastwest;" parent="cjsIKWXRiVvNh0Afup5I-6" vertex="1">
          <mxGeometry y="120" width="190" height="30" as="geometry" />
        </mxCell>
        <mxCell id="kAXm22sGxHdlL6DxmAPc-37" value="" style="shape=partialRectangle;connectable=0;fillColor=none;top=0;left=0;bottom=0;right=0;editable=1;overflow=hidden;" parent="kAXm22sGxHdlL6DxmAPc-36" vertex="1">
          <mxGeometry width="30" height="30" as="geometry" />
        </mxCell>
        <mxCell id="kAXm22sGxHdlL6DxmAPc-38" value="AffectedRows" style="shape=partialRectangle;connectable=0;fillColor=none;top=0;left=0;bottom=0;right=0;align=left;spacingLeft=6;overflow=hidden;" parent="kAXm22sGxHdlL6DxmAPc-36" vertex="1">
          <mxGeometry x="30" width="160" height="30" as="geometry" />
        </mxCell>
        <mxCell id="cjsIKWXRiVvNh0Afup5I-13" value="" style="shape=partialRectangle;collapsible=0;dropTarget=0;pointerEvents=0;fillColor=none;top=0;left=0;bottom=0;right=0;points=[[0,0.5],[1,0.5]];portConstraint=eastwest;" parent="cjsIKWXRiVvNh0Afup5I-6" vertex="1">
          <mxGeometry y="150" width="190" height="30" as="geometry" />
        </mxCell>
        <mxCell id="cjsIKWXRiVvNh0Afup5I-14" value="" style="shape=partialRectangle;connectable=0;fillColor=none;top=0;left=0;bottom=0;right=0;editable=1;overflow=hidden;" parent="cjsIKWXRiVvNh0Afup5I-13" vertex="1">
          <mxGeometry width="30" height="30" as="geometry" />
        </mxCell>
        <mxCell id="cjsIKWXRiVvNh0Afup5I-15" value="EventProcName" style="shape=partialRectangle;connectable=0;fillColor=none;top=0;left=0;bottom=0;right=0;align=left;spacingLeft=6;overflow=hidden;" parent="cjsIKWXRiVvNh0Afup5I-13" vertex="1">
          <mxGeometry x="30" width="160" height="30" as="geometry" />
        </mxCell>
        <mxCell id="cjsIKWXRiVvNh0Afup5I-16" value="" style="shape=partialRectangle;collapsible=0;dropTarget=0;pointerEvents=0;fillColor=none;top=0;left=0;bottom=0;right=0;points=[[0,0.5],[1,0.5]];portConstraint=eastwest;" parent="cjsIKWXRiVvNh0Afup5I-6" vertex="1">
          <mxGeometry y="180" width="190" height="30" as="geometry" />
        </mxCell>
        <mxCell id="cjsIKWXRiVvNh0Afup5I-17" value="" style="shape=partialRectangle;connectable=0;fillColor=none;top=0;left=0;bottom=0;right=0;editable=1;overflow=hidden;" parent="cjsIKWXRiVvNh0Afup5I-16" vertex="1">
          <mxGeometry width="30" height="30" as="geometry" />
        </mxCell>
        <mxCell id="cjsIKWXRiVvNh0Afup5I-18" value="Parameters" style="shape=partialRectangle;connectable=0;fillColor=none;top=0;left=0;bottom=0;right=0;align=left;spacingLeft=6;overflow=hidden;" parent="cjsIKWXRiVvNh0Afup5I-16" vertex="1">
          <mxGeometry x="30" width="160" height="30" as="geometry" />
        </mxCell>
        <mxCell id="kAXm22sGxHdlL6DxmAPc-33" value="" style="shape=partialRectangle;collapsible=0;dropTarget=0;pointerEvents=0;fillColor=none;top=0;left=0;bottom=0;right=0;points=[[0,0.5],[1,0.5]];portConstraint=eastwest;" parent="cjsIKWXRiVvNh0Afup5I-6" vertex="1">
          <mxGeometry y="210" width="190" height="30" as="geometry" />
        </mxCell>
        <mxCell id="kAXm22sGxHdlL6DxmAPc-34" value="" style="shape=partialRectangle;connectable=0;fillColor=none;top=0;left=0;bottom=0;right=0;editable=1;overflow=hidden;" parent="kAXm22sGxHdlL6DxmAPc-33" vertex="1">
          <mxGeometry width="30" height="30" as="geometry" />
        </mxCell>
        <mxCell id="kAXm22sGxHdlL6DxmAPc-35" value="EventMessage" style="shape=partialRectangle;connectable=0;fillColor=none;top=0;left=0;bottom=0;right=0;align=left;spacingLeft=6;overflow=hidden;" parent="kAXm22sGxHdlL6DxmAPc-33" vertex="1">
          <mxGeometry x="30" width="160" height="30" as="geometry" />
        </mxCell>
        <mxCell id="kAXm22sGxHdlL6DxmAPc-30" value="" style="shape=partialRectangle;collapsible=0;dropTarget=0;pointerEvents=0;fillColor=none;top=0;left=0;bottom=0;right=0;points=[[0,0.5],[1,0.5]];portConstraint=eastwest;" parent="cjsIKWXRiVvNh0Afup5I-6" vertex="1">
          <mxGeometry y="240" width="190" height="30" as="geometry" />
        </mxCell>
        <mxCell id="kAXm22sGxHdlL6DxmAPc-31" value="" style="shape=partialRectangle;connectable=0;fillColor=none;top=0;left=0;bottom=0;right=0;editable=1;overflow=hidden;" parent="kAXm22sGxHdlL6DxmAPc-30" vertex="1">
          <mxGeometry width="30" height="30" as="geometry" />
        </mxCell>
        <mxCell id="kAXm22sGxHdlL6DxmAPc-32" value="EventDateTime" style="shape=partialRectangle;connectable=0;fillColor=none;top=0;left=0;bottom=0;right=0;align=left;spacingLeft=6;overflow=hidden;" parent="kAXm22sGxHdlL6DxmAPc-30" vertex="1">
          <mxGeometry x="30" width="160" height="30" as="geometry" />
        </mxCell>
        <mxCell id="Zcw0bHwVWANitrIkvOy3-8" value="" style="edgeStyle=entityRelationEdgeStyle;fontSize=12;html=1;endArrow=ERzeroToMany;startArrow=ERmandOne;exitX=1;exitY=0.5;exitDx=0;exitDy=0;entryX=0;entryY=0.5;entryDx=0;entryDy=0;" parent="1" source="cjsIKWXRiVvNh0Afup5I-7" target="kAXm22sGxHdlL6DxmAPc-52" edge="1">
          <mxGeometry width="100" height="100" relative="1" as="geometry">
            <mxPoint x="274" y="700" as="sourcePoint" />
            <mxPoint x="374" y="600" as="targetPoint" />
          </mxGeometry>
        </mxCell>
        <mxCell id="sUSsirJtk323K5pq7xKb-48" value="OperationRuns" style="shape=table;startSize=30;container=1;collapsible=1;childLayout=tableLayout;fixedRows=1;rowLines=0;fontStyle=1;align=center;resizeLast=1;flipH=1;" parent="1" vertex="1">
          <mxGeometry x="270" y="50" width="160" height="240" as="geometry" />
        </mxCell>
        <mxCell id="sUSsirJtk323K5pq7xKb-49" value="" style="shape=partialRectangle;collapsible=0;dropTarget=0;pointerEvents=0;fillColor=none;top=0;left=0;bottom=1;right=0;points=[[0,0.5],[1,0.5]];portConstraint=eastwest;" parent="sUSsirJtk323K5pq7xKb-48" vertex="1">
          <mxGeometry y="30" width="160" height="30" as="geometry" />
        </mxCell>
        <mxCell id="sUSsirJtk323K5pq7xKb-50" value="PK" style="shape=partialRectangle;connectable=0;fillColor=none;top=0;left=0;bottom=0;right=0;fontStyle=1;overflow=hidden;" parent="sUSsirJtk323K5pq7xKb-49" vertex="1">
          <mxGeometry width="30" height="30" as="geometry" />
        </mxCell>
        <mxCell id="sUSsirJtk323K5pq7xKb-51" value="OperationRunID" style="shape=partialRectangle;connectable=0;fillColor=none;top=0;left=0;bottom=0;right=0;align=left;spacingLeft=6;fontStyle=5;overflow=hidden;" parent="sUSsirJtk323K5pq7xKb-49" vertex="1">
          <mxGeometry x="30" width="130" height="30" as="geometry" />
        </mxCell>
        <mxCell id="sUSsirJtk323K5pq7xKb-52" value="" style="shape=partialRectangle;collapsible=0;dropTarget=0;pointerEvents=0;fillColor=none;top=0;left=0;bottom=0;right=0;points=[[0,0.5],[1,0.5]];portConstraint=eastwest;" parent="sUSsirJtk323K5pq7xKb-48" vertex="1">
          <mxGeometry y="60" width="160" height="30" as="geometry" />
        </mxCell>
        <mxCell id="sUSsirJtk323K5pq7xKb-53" value="FK" style="shape=partialRectangle;connectable=0;fillColor=none;top=0;left=0;bottom=0;right=0;editable=1;overflow=hidden;" parent="sUSsirJtk323K5pq7xKb-52" vertex="1">
          <mxGeometry width="30" height="30" as="geometry" />
        </mxCell>
        <mxCell id="sUSsirJtk323K5pq7xKb-54" value="OperationID" style="shape=partialRectangle;connectable=0;fillColor=none;top=0;left=0;bottom=0;right=0;align=left;spacingLeft=6;overflow=hidden;" parent="sUSsirJtk323K5pq7xKb-52" vertex="1">
          <mxGeometry x="30" width="130" height="30" as="geometry" />
        </mxCell>
        <mxCell id="kAXm22sGxHdlL6DxmAPc-20" value="" style="shape=partialRectangle;collapsible=0;dropTarget=0;pointerEvents=0;fillColor=none;top=0;left=0;bottom=0;right=0;points=[[0,0.5],[1,0.5]];portConstraint=eastwest;" parent="sUSsirJtk323K5pq7xKb-48" vertex="1">
          <mxGeometry y="90" width="160" height="30" as="geometry" />
        </mxCell>
        <mxCell id="kAXm22sGxHdlL6DxmAPc-21" value="FK" style="shape=partialRectangle;connectable=0;fillColor=none;top=0;left=0;bottom=0;right=0;editable=1;overflow=hidden;" parent="kAXm22sGxHdlL6DxmAPc-20" vertex="1">
          <mxGeometry width="30" height="30" as="geometry" />
        </mxCell>
        <mxCell id="kAXm22sGxHdlL6DxmAPc-22" value="StatusID" style="shape=partialRectangle;connectable=0;fillColor=none;top=0;left=0;bottom=0;right=0;align=left;spacingLeft=6;overflow=hidden;" parent="kAXm22sGxHdlL6DxmAPc-20" vertex="1">
          <mxGeometry x="30" width="130" height="30" as="geometry" />
        </mxCell>
        <mxCell id="sUSsirJtk323K5pq7xKb-55" value="" style="shape=partialRectangle;collapsible=0;dropTarget=0;pointerEvents=0;fillColor=none;top=0;left=0;bottom=0;right=0;points=[[0,0.5],[1,0.5]];portConstraint=eastwest;" parent="sUSsirJtk323K5pq7xKb-48" vertex="1">
          <mxGeometry y="120" width="160" height="30" as="geometry" />
        </mxCell>
        <mxCell id="sUSsirJtk323K5pq7xKb-56" value="" style="shape=partialRectangle;connectable=0;fillColor=none;top=0;left=0;bottom=0;right=0;editable=1;overflow=hidden;" parent="sUSsirJtk323K5pq7xKb-55" vertex="1">
          <mxGeometry width="30" height="30" as="geometry" />
        </mxCell>
        <mxCell id="sUSsirJtk323K5pq7xKb-57" value="StartTime" style="shape=partialRectangle;connectable=0;fillColor=none;top=0;left=0;bottom=0;right=0;align=left;spacingLeft=6;overflow=hidden;" parent="sUSsirJtk323K5pq7xKb-55" vertex="1">
          <mxGeometry x="30" width="130" height="30" as="geometry" />
        </mxCell>
        <mxCell id="sUSsirJtk323K5pq7xKb-58" value="" style="shape=partialRectangle;collapsible=0;dropTarget=0;pointerEvents=0;fillColor=none;top=0;left=0;bottom=0;right=0;points=[[0,0.5],[1,0.5]];portConstraint=eastwest;" parent="sUSsirJtk323K5pq7xKb-48" vertex="1">
          <mxGeometry y="150" width="160" height="30" as="geometry" />
        </mxCell>
        <mxCell id="sUSsirJtk323K5pq7xKb-59" value="" style="shape=partialRectangle;connectable=0;fillColor=none;top=0;left=0;bottom=0;right=0;editable=1;overflow=hidden;" parent="sUSsirJtk323K5pq7xKb-58" vertex="1">
          <mxGeometry width="30" height="30" as="geometry" />
        </mxCell>
        <mxCell id="sUSsirJtk323K5pq7xKb-60" value="EndTime" style="shape=partialRectangle;connectable=0;fillColor=none;top=0;left=0;bottom=0;right=0;align=left;spacingLeft=6;overflow=hidden;" parent="sUSsirJtk323K5pq7xKb-58" vertex="1">
          <mxGeometry x="30" width="130" height="30" as="geometry" />
        </mxCell>
        <mxCell id="kAXm22sGxHdlL6DxmAPc-17" value="" style="shape=partialRectangle;collapsible=0;dropTarget=0;pointerEvents=0;fillColor=none;top=0;left=0;bottom=0;right=0;points=[[0,0.5],[1,0.5]];portConstraint=eastwest;" parent="sUSsirJtk323K5pq7xKb-48" vertex="1">
          <mxGeometry y="180" width="160" height="30" as="geometry" />
        </mxCell>
        <mxCell id="kAXm22sGxHdlL6DxmAPc-18" value="" style="shape=partialRectangle;connectable=0;fillColor=none;top=0;left=0;bottom=0;right=0;editable=1;overflow=hidden;" parent="kAXm22sGxHdlL6DxmAPc-17" vertex="1">
          <mxGeometry width="30" height="30" as="geometry" />
        </mxCell>
        <mxCell id="kAXm22sGxHdlL6DxmAPc-19" value="Description" style="shape=partialRectangle;connectable=0;fillColor=none;top=0;left=0;bottom=0;right=0;align=left;spacingLeft=6;overflow=hidden;" parent="kAXm22sGxHdlL6DxmAPc-17" vertex="1">
          <mxGeometry x="30" width="130" height="30" as="geometry" />
        </mxCell>
        <mxCell id="sUSsirJtk323K5pq7xKb-61" value="Operations" style="shape=table;startSize=30;container=1;collapsible=1;childLayout=tableLayout;fixedRows=1;rowLines=0;fontStyle=1;align=center;resizeLast=1;flipH=1;" parent="1" vertex="1">
          <mxGeometry x="30" y="80" width="160" height="200" as="geometry" />
        </mxCell>
        <mxCell id="sUSsirJtk323K5pq7xKb-62" value="" style="shape=partialRectangle;collapsible=0;dropTarget=0;pointerEvents=0;fillColor=none;top=0;left=0;bottom=1;right=0;points=[[0,0.5],[1,0.5]];portConstraint=eastwest;" parent="sUSsirJtk323K5pq7xKb-61" vertex="1">
          <mxGeometry y="30" width="160" height="30" as="geometry" />
        </mxCell>
        <mxCell id="sUSsirJtk323K5pq7xKb-63" value="PK" style="shape=partialRectangle;connectable=0;fillColor=none;top=0;left=0;bottom=0;right=0;fontStyle=1;overflow=hidden;" parent="sUSsirJtk323K5pq7xKb-62" vertex="1">
          <mxGeometry width="30" height="30" as="geometry" />
        </mxCell>
        <mxCell id="sUSsirJtk323K5pq7xKb-64" value="OperationID" style="shape=partialRectangle;connectable=0;fillColor=none;top=0;left=0;bottom=0;right=0;align=left;spacingLeft=6;fontStyle=5;overflow=hidden;" parent="sUSsirJtk323K5pq7xKb-62" vertex="1">
          <mxGeometry x="30" width="130" height="30" as="geometry" />
        </mxCell>
        <mxCell id="sUSsirJtk323K5pq7xKb-65" value="" style="shape=partialRectangle;collapsible=0;dropTarget=0;pointerEvents=0;fillColor=none;top=0;left=0;bottom=0;right=0;points=[[0,0.5],[1,0.5]];portConstraint=eastwest;" parent="sUSsirJtk323K5pq7xKb-61" vertex="1">
          <mxGeometry y="60" width="160" height="30" as="geometry" />
        </mxCell>
        <mxCell id="sUSsirJtk323K5pq7xKb-66" value="" style="shape=partialRectangle;connectable=0;fillColor=none;top=0;left=0;bottom=0;right=0;editable=1;overflow=hidden;" parent="sUSsirJtk323K5pq7xKb-65" vertex="1">
          <mxGeometry width="30" height="30" as="geometry" />
        </mxCell>
        <mxCell id="sUSsirJtk323K5pq7xKb-67" value="OperationName" style="shape=partialRectangle;connectable=0;fillColor=none;top=0;left=0;bottom=0;right=0;align=left;spacingLeft=6;overflow=hidden;" parent="sUSsirJtk323K5pq7xKb-65" vertex="1">
          <mxGeometry x="30" width="130" height="30" as="geometry" />
        </mxCell>
        <mxCell id="sUSsirJtk323K5pq7xKb-68" value="" style="shape=partialRectangle;collapsible=0;dropTarget=0;pointerEvents=0;fillColor=none;top=0;left=0;bottom=0;right=0;points=[[0,0.5],[1,0.5]];portConstraint=eastwest;" parent="sUSsirJtk323K5pq7xKb-61" vertex="1">
          <mxGeometry y="90" width="160" height="30" as="geometry" />
        </mxCell>
        <mxCell id="sUSsirJtk323K5pq7xKb-69" value="" style="shape=partialRectangle;connectable=0;fillColor=none;top=0;left=0;bottom=0;right=0;editable=1;overflow=hidden;" parent="sUSsirJtk323K5pq7xKb-68" vertex="1">
          <mxGeometry width="30" height="30" as="geometry" />
        </mxCell>
        <mxCell id="sUSsirJtk323K5pq7xKb-70" value="Description" style="shape=partialRectangle;connectable=0;fillColor=none;top=0;left=0;bottom=0;right=0;align=left;spacingLeft=6;overflow=hidden;" parent="sUSsirJtk323K5pq7xKb-68" vertex="1">
          <mxGeometry x="30" width="130" height="30" as="geometry" />
        </mxCell>
        <mxCell id="sUSsirJtk323K5pq7xKb-71" value="" style="shape=partialRectangle;collapsible=0;dropTarget=0;pointerEvents=0;fillColor=none;top=0;left=0;bottom=0;right=0;points=[[0,0.5],[1,0.5]];portConstraint=eastwest;" parent="sUSsirJtk323K5pq7xKb-61" vertex="1">
          <mxGeometry y="120" width="160" height="30" as="geometry" />
        </mxCell>
        <mxCell id="sUSsirJtk323K5pq7xKb-72" value="" style="shape=partialRectangle;connectable=0;fillColor=none;top=0;left=0;bottom=0;right=0;editable=1;overflow=hidden;" parent="sUSsirJtk323K5pq7xKb-71" vertex="1">
          <mxGeometry width="30" height="30" as="geometry" />
        </mxCell>
        <mxCell id="sUSsirJtk323K5pq7xKb-73" value="" style="shape=partialRectangle;connectable=0;fillColor=none;top=0;left=0;bottom=0;right=0;align=left;spacingLeft=6;overflow=hidden;" parent="sUSsirJtk323K5pq7xKb-71" vertex="1">
          <mxGeometry x="30" width="130" height="30" as="geometry" />
        </mxCell>
        <mxCell id="kAXm22sGxHdlL6DxmAPc-1" value="OperationStatus" style="shape=table;startSize=30;container=1;collapsible=1;childLayout=tableLayout;fixedRows=1;rowLines=0;fontStyle=1;align=center;resizeLast=1;flipH=1;" parent="1" vertex="1">
          <mxGeometry x="560" y="60" width="160" height="200" as="geometry" />
        </mxCell>
        <mxCell id="kAXm22sGxHdlL6DxmAPc-2" value="" style="shape=partialRectangle;collapsible=0;dropTarget=0;pointerEvents=0;fillColor=none;top=0;left=0;bottom=1;right=0;points=[[0,0.5],[1,0.5]];portConstraint=eastwest;" parent="kAXm22sGxHdlL6DxmAPc-1" vertex="1">
          <mxGeometry y="30" width="160" height="30" as="geometry" />
        </mxCell>
        <mxCell id="kAXm22sGxHdlL6DxmAPc-3" value="PK" style="shape=partialRectangle;connectable=0;fillColor=none;top=0;left=0;bottom=0;right=0;fontStyle=1;overflow=hidden;" parent="kAXm22sGxHdlL6DxmAPc-2" vertex="1">
          <mxGeometry width="30" height="30" as="geometry" />
        </mxCell>
        <mxCell id="kAXm22sGxHdlL6DxmAPc-4" value="StatusID" style="shape=partialRectangle;connectable=0;fillColor=none;top=0;left=0;bottom=0;right=0;align=left;spacingLeft=6;fontStyle=5;overflow=hidden;" parent="kAXm22sGxHdlL6DxmAPc-2" vertex="1">
          <mxGeometry x="30" width="130" height="30" as="geometry" />
        </mxCell>
        <mxCell id="kAXm22sGxHdlL6DxmAPc-14" value="" style="shape=partialRectangle;collapsible=0;dropTarget=0;pointerEvents=0;fillColor=none;top=0;left=0;bottom=0;right=0;points=[[0,0.5],[1,0.5]];portConstraint=eastwest;" parent="kAXm22sGxHdlL6DxmAPc-1" vertex="1">
          <mxGeometry y="60" width="160" height="30" as="geometry" />
        </mxCell>
        <mxCell id="kAXm22sGxHdlL6DxmAPc-15" value="" style="shape=partialRectangle;connectable=0;fillColor=none;top=0;left=0;bottom=0;right=0;editable=1;overflow=hidden;" parent="kAXm22sGxHdlL6DxmAPc-14" vertex="1">
          <mxGeometry width="30" height="30" as="geometry" />
        </mxCell>
        <mxCell id="kAXm22sGxHdlL6DxmAPc-16" value="Status" style="shape=partialRectangle;connectable=0;fillColor=none;top=0;left=0;bottom=0;right=0;align=left;spacingLeft=6;overflow=hidden;" parent="kAXm22sGxHdlL6DxmAPc-14" vertex="1">
          <mxGeometry x="30" width="130" height="30" as="geometry" />
        </mxCell>
        <mxCell id="kAXm22sGxHdlL6DxmAPc-5" value="" style="shape=partialRectangle;collapsible=0;dropTarget=0;pointerEvents=0;fillColor=none;top=0;left=0;bottom=0;right=0;points=[[0,0.5],[1,0.5]];portConstraint=eastwest;" parent="kAXm22sGxHdlL6DxmAPc-1" vertex="1">
          <mxGeometry y="90" width="160" height="30" as="geometry" />
        </mxCell>
        <mxCell id="kAXm22sGxHdlL6DxmAPc-6" value="" style="shape=partialRectangle;connectable=0;fillColor=none;top=0;left=0;bottom=0;right=0;editable=1;overflow=hidden;" parent="kAXm22sGxHdlL6DxmAPc-5" vertex="1">
          <mxGeometry width="30" height="30" as="geometry" />
        </mxCell>
        <mxCell id="kAXm22sGxHdlL6DxmAPc-7" value="StatusName" style="shape=partialRectangle;connectable=0;fillColor=none;top=0;left=0;bottom=0;right=0;align=left;spacingLeft=6;overflow=hidden;" parent="kAXm22sGxHdlL6DxmAPc-5" vertex="1">
          <mxGeometry x="30" width="130" height="30" as="geometry" />
        </mxCell>
        <mxCell id="kAXm22sGxHdlL6DxmAPc-8" value="" style="shape=partialRectangle;collapsible=0;dropTarget=0;pointerEvents=0;fillColor=none;top=0;left=0;bottom=0;right=0;points=[[0,0.5],[1,0.5]];portConstraint=eastwest;" parent="kAXm22sGxHdlL6DxmAPc-1" vertex="1">
          <mxGeometry y="120" width="160" height="30" as="geometry" />
        </mxCell>
        <mxCell id="kAXm22sGxHdlL6DxmAPc-9" value="" style="shape=partialRectangle;connectable=0;fillColor=none;top=0;left=0;bottom=0;right=0;editable=1;overflow=hidden;" parent="kAXm22sGxHdlL6DxmAPc-8" vertex="1">
          <mxGeometry width="30" height="30" as="geometry" />
        </mxCell>
        <mxCell id="kAXm22sGxHdlL6DxmAPc-10" value="StatusDescription" style="shape=partialRectangle;connectable=0;fillColor=none;top=0;left=0;bottom=0;right=0;align=left;spacingLeft=6;overflow=hidden;" parent="kAXm22sGxHdlL6DxmAPc-8" vertex="1">
          <mxGeometry x="30" width="130" height="30" as="geometry" />
        </mxCell>
        <mxCell id="kAXm22sGxHdlL6DxmAPc-11" value="" style="shape=partialRectangle;collapsible=0;dropTarget=0;pointerEvents=0;fillColor=none;top=0;left=0;bottom=0;right=0;points=[[0,0.5],[1,0.5]];portConstraint=eastwest;" parent="kAXm22sGxHdlL6DxmAPc-1" vertex="1">
          <mxGeometry y="150" width="160" height="30" as="geometry" />
        </mxCell>
        <mxCell id="kAXm22sGxHdlL6DxmAPc-12" value="" style="shape=partialRectangle;connectable=0;fillColor=none;top=0;left=0;bottom=0;right=0;editable=1;overflow=hidden;" parent="kAXm22sGxHdlL6DxmAPc-11" vertex="1">
          <mxGeometry width="30" height="30" as="geometry" />
        </mxCell>
        <mxCell id="kAXm22sGxHdlL6DxmAPc-13" value="" style="shape=partialRectangle;connectable=0;fillColor=none;top=0;left=0;bottom=0;right=0;align=left;spacingLeft=6;overflow=hidden;" parent="kAXm22sGxHdlL6DxmAPc-11" vertex="1">
          <mxGeometry x="30" width="130" height="30" as="geometry" />
        </mxCell>
        <mxCell id="kAXm22sGxHdlL6DxmAPc-24" value="" style="fontSize=12;html=1;endArrow=ERzeroToMany;startArrow=ERmandOne;exitX=1;exitY=0.5;exitDx=0;exitDy=0;entryX=0;entryY=0.5;entryDx=0;entryDy=0;edgeStyle=orthogonalEdgeStyle;" parent="1" source="sUSsirJtk323K5pq7xKb-62" target="sUSsirJtk323K5pq7xKb-52" edge="1">
          <mxGeometry width="100" height="100" relative="1" as="geometry">
            <mxPoint x="280" y="210" as="sourcePoint" />
            <mxPoint x="370" y="420" as="targetPoint" />
          </mxGeometry>
        </mxCell>
        <mxCell id="kAXm22sGxHdlL6DxmAPc-25" value="" style="fontSize=12;html=1;endArrow=ERzeroToMany;startArrow=ERmandOne;exitX=1;exitY=0.5;exitDx=0;exitDy=0;entryX=1;entryY=0.5;entryDx=0;entryDy=0;edgeStyle=orthogonalEdgeStyle;" parent="1" source="sUSsirJtk323K5pq7xKb-49" target="kAXm22sGxHdlL6DxmAPc-39" edge="1">
          <mxGeometry width="100" height="100" relative="1" as="geometry">
            <mxPoint x="200" y="330" as="sourcePoint" />
            <mxPoint x="240" y="670" as="targetPoint" />
            <Array as="points">
              <mxPoint x="470" y="95" />
              <mxPoint x="470" y="405" />
            </Array>
          </mxGeometry>
        </mxCell>
        <mxCell id="kAXm22sGxHdlL6DxmAPc-45" value="" style="fontSize=12;html=1;endArrow=ERzeroToMany;startArrow=ERmandOne;exitX=0;exitY=0.5;exitDx=0;exitDy=0;entryX=1;entryY=0.5;entryDx=0;entryDy=0;edgeStyle=orthogonalEdgeStyle;" parent="1" source="kAXm22sGxHdlL6DxmAPc-2" target="kAXm22sGxHdlL6DxmAPc-20" edge="1">
          <mxGeometry width="100" height="100" relative="1" as="geometry">
            <mxPoint x="410" y="-20" as="sourcePoint" />
            <mxPoint x="490" y="-20" as="targetPoint" />
          </mxGeometry>
        </mxCell>
        <mxCell id="kAXm22sGxHdlL6DxmAPc-55" value="" style="fontSize=12;html=1;endArrow=ERzeroToMany;startArrow=ERmandOne;exitX=1;exitY=0.5;exitDx=0;exitDy=0;entryX=0;entryY=0.5;entryDx=0;entryDy=0;edgeStyle=orthogonalEdgeStyle;" parent="1" source="sUSsirJtk323K5pq7xKb-49" target="kAXm22sGxHdlL6DxmAPc-42" edge="1">
          <mxGeometry width="100" height="100" relative="1" as="geometry">
            <mxPoint x="440" y="105" as="sourcePoint" />
            <mxPoint x="440" y="415" as="targetPoint" />
            <Array as="points">
              <mxPoint x="470" y="95" />
              <mxPoint x="470" y="405" />
            </Array>
          </mxGeometry>
        </mxCell>
      </root>
    </mxGraphModel>
  </diagram>
</mxfile>
